<?xml version="1.0" encoding="utf-8"?>
<!-- Generator: Adobe Illustrator 28.1.0, SVG Export Plug-In . SVG Version: 6.00 Build 0)  -->
<svg version="1.1" id="Layer_1" xmlns="http://www.w3.org/2000/svg" xmlns:xlink="http://www.w3.org/1999/xlink" x="0px" y="0px"
	 viewBox="0 0 388 389.4" style="enable-background:new 0 0 388 389.4;" xml:space="preserve">
<style type="text/css">
	.st0{display:none;}
	.st1{display:inline;fill:#7E7D7E;}
	.st2{display:inline;fill:#3B3A3A;}
	.st3{display:inline;fill:#382F28;}
	.st4{display:inline;fill:#48403A;}
	.st5{display:inline;fill:#0E0E0F;}
	.st6{display:inline;fill:#D06D2D;}
	.st7{display:inline;fill:#9C6E6D;}
	.st8{display:inline;fill:#FDFEFE;}
	.st9{display:inline;fill:#DBDBDF;}
	.st10{display:inline;fill:#405673;}
	.st11{display:inline;fill:#AEB9C8;}
	.st12{display:inline;fill:#8FA0B4;}
	.st13{display:inline;fill:#697E99;}
	.st14{display:inline;fill:#F69428;}
	.st15{display:inline;fill:#FECA64;}
	.st16{display:inline;fill:#798BA4;}
	.st17{display:inline;fill:#2C2E31;}
	.st18{display:inline;fill:#16181A;}
	.st19{display:inline;fill:#FD7403;}
	.st20{display:inline;fill:#E15D03;}
	.st21{display:inline;fill:#DA4806;}
	.st22{display:inline;fill:#8F5528;}
	.st23{display:inline;fill:#9B3D09;}
	.st24{display:inline;fill:#BE4F0D;}
	.st25{display:inline;fill:#CC690D;}
	.st26{display:inline;fill:#EE8409;}
	.st27{display:inline;fill:#7C3B18;}
	.st28{display:inline;fill:#7D4E0E;}
	.st29{display:inline;fill:#5C4738;}
	.st30{display:inline;fill:#744E35;}
	.st31{display:inline;fill:#6F5951;}
	.st32{display:inline;fill:#B69A87;}
	.st33{display:inline;fill:#AA5513;}
	.st34{fill:#FD7403;}
	.st35{fill:#F0E7DD;}
	.st36{fill:#30312B;}
	.st37{fill:#EE8409;}
	.st38{fill:#E15D03;}
	.st39{fill:#CC690D;}
	.st40{fill:#BE4F0D;}
	.st41{fill:#E5D7BE;}
	.st42{fill:#AA5513;}
	.st43{fill:#A68670;}
	.st44{fill:#8F5528;}
	.st45{fill:#AF6830;}
	.st46{fill:#C47D42;}
	.st47{fill:#B88A69;}
	.st48{fill:#7C3B18;}
	.st49{fill:#93673F;}
	.st50{fill:#FBA963;}
	.st51{fill:#E19A47;}
	.st52{fill:#EAAE3E;}
	.st53{fill:#D59A69;}
	.st54{fill:#F3D7AE;}
	.st55{fill:#FCFFFC;}
	.st56{fill:#9B3D09;}
	.st57{fill:#FAA127;}
	.st58{fill:#FB955D;}
	.st59{fill:#EEC7A5;}
	.st60{fill:#FC6217;}
	.st61{fill:#2C2E31;}
	.st62{fill:#5C4738;}
	.st63{fill:#26342F;}
	.st64{fill:#44482D;}
	.st65{fill:#5B3920;}
	.st66{fill:#F2E2B1;}
	.st67{fill:#ED893E;}
	.st68{fill:#703A25;}
	.st69{fill:#542610;}
	.st70{fill:#D18A3F;}
	.st71{fill:#E5B373;}
	.st72{fill:#6E2B0A;}
</style>
<g>
	<g id="Background_00000022546718468905033240000015881100246446757249_" class="st0">
		<path class="st1" d="M-13-51.6c5,2.7-4.6,4.8,4.2,4.5c-0.5-4.4,14.2-2.8,19-2.5c0.1,0,1.9-1,2-1c2.6,0.5,5.2,4.9-0.2,3.2
			c2.4,3.7-0.6,1.6-0.7,1.7c-1.2,0.9,1.5,5.2,6,0.5c3.7,2.8,5.7-1.7,10-0.5c1.6-8.7-4.9-1.7-2.2-6c4.3,0,8.7,0,13,0
			c-6,3.5,1.9,1.3,2.2,1.5c0.5,0.3-1.3,2.3,7.5,5c-0.1-5.5,3.8-0.5,6.2-3.2c0.5-0.5-2.1-0.3,2.5-3.2c16.8,0,33.7,0,50.5,0
			c0.4,3.4,6.7-0.6,10.2,2.5c4.1-3.2,8.9,0.8,13.5-1.5c-2,2.8,1.2,3.6-1.7,6.2c0.5,0.1,1.2,0.7,1.2,0.7c1.2,0.1,7.4-3.7,8-6.5
			c2,1.6,5.7,0,6,0c2.4-0.1,4.9,0.5,7.5,0.5c0.4,0,0.1-1,0.5-1c2.8,0,3.3,1.5,3.5,1.5c2.4,0,2.8-1,3-1c0.6,0,1,1,2,1
			c0.9,0,9.3-1.4,9.7-2.5c6.8,0,13.7,0,20.5,0c-2.1,1.3,3.4,1.9,5,2c3.1,1.8-0.1,1.5,0,1.7c0.3,1.7,6.4,2.6,8.2,2.7
			c0.3,0,1.7-2,4.5-0.5c0.7,0.4-2,1,2.2,2c0.1,0,0.3,1.1,1.2,1c3.5-0.4,10.2-10.4,7.5-4c5-0.1-1.5-6.4,7.5-2.5
			c2.9-1.2,2.9-1.2,5.7-2.5c1.5,0,3,0,4.5,0c-0.9,2.1,6.8,2.8,6.7,1c-1.3,2.2,11.3,0.4,10.7-1c1.5,0,3,0,4.5,0
			c0.9,1.7,0.9,1.7,1.7,3.5c0.6-3.4,6.9-1.4,10.2-1.5c0.9,0.3,3.3,1.9,3.5,2.7c0.1,0.7-1.5,0.4-1.5,0.5c-0.2,0.8,2.8,6.9,3.7,4.2
			c1.2,4.8,5.6,0.6,6,0.5c1.1-0.2,0.3,1.3,1.7,1c-0.2,0.1-0.9,1.8-0.2,2c0.1,0,1.3-2.3,0.2-2c0.2,0,3.9-1.4,2.7-2
			c5,2.9,1.1-2.8,5.5,0.5c1.2-3.3,3.2,0.7,3.5-2.5c2,2.8,9.6,0.7,9-1c3.2,1.2,9.9-0.8,7.2,2.7c3.1,2.6,5.6-2.6,7.2,1.2
			c2-1.7,2-1.7,4-3.5c4.2,6.7,2.1-2.6,7.5,1c2.8-1.3-1.3-0.4,0.2-2.7c2.6-4,4.2,1.8,4.5,2c0.9,0.6,2.2-1.4,2.7,0.7
			c1.8-2.8,2.3,0,2.5,0c1.2-0.1,5.8-1.2,7-3c0.8,0-1.3,10.2,2,3.5c1.8,3.1,1-1.5,6.2,1.7c-6.2,2.8-1,1.7-0.7,1.7
			c0.4,0.1,3.4,4.1,5.5-2.5c1.5,0.7,1.5,0.7,3,1.5c9.6-2.2,0.9-0.8,1.2-4.2c1.8-0.6,1.5-4.1,4.2-1.7c3-5.3,5.3-2.3,4.2-4.5
			c8.3,0,16.7,0,25,0c-0.2,0.8-1.4,1.3-2,1.5c-3.8,1.5-2.4-0.5-3.2-0.5c-1.2,0.1-0.6,1-1,1c-0.8,0-6.6-1.1-8.5-1
			c-2.4,3.4-1.2-0.8-9.2,1.2c7.7,3.1,2.3,6.1,3.7,6.7c0.4,0.2,2.1-2.8,2.5-3c0.5-0.2,4.2,3.9,4.5,4c0.1,0,2.1-1.2,2.5-1
			c0.3,0.1,0.4,2.1,1,2.5c0.3,0.2,7.3-0.7,6.5-2c1.2,0-1.6,2.5,4.5,2c1.7-6.4,2.2-1.6,2.5-1.5c0.4,0.1,0.9-1.9,1.5-2
			c0.3-0.1,0.2,1.1,0.5,1c5.6-1.8,0.3-0.3,1.7-3.2c3.4,2.9,3.1-0.9,4.2-0.7c1.4,0.2-2.6,9.3,4.2,5.2c-1.2-4.5,6-2.5,2-4
			c2.6-2.9,2.7,0.8,3.7,1.2c0.6,0.3,2-3.1,2,2c5.1-3.1,5,0.7,6,0.5c0.2,0,1.1-3,2-0.5c0.9-3.1,0.2,0,1.5,0c1.1,0,2.9-3.7,3.5,1.5
			c2.3-1.1,6.2,3.9,5.5-2c2.5,1.2,2.5,1.2,5,2.5c2.9-7.3,0.3-3.1,0-3c-2.5,0.9-1.8-2.5,1.2-2.7c-1-0.7-1.3-2.8,0-3.7
			c6.4-0.1,6.9-1,7.2-1c0.4,0,2.8,3.4,3.2-1c5.2,0,10.3-0.2,15.5,0c-9.2,9.1,4.3,2-1,6.7c3.4,2.4,5-2.2,4,3.5
			c-3.6,2.9-0.5,5.1-3.5,5c0.2,0.3,1,1.4,1,1.5c-1.7,5.5-1.2-1.6-3.7-1.2c-0.2,0-0.7,2.1-3.2,2.7c-1.3,4.1,6.2,4.2,2.5,7.5
			c2.2,1-1.6,7.4-3.2,3.2c-3.8,5.2,3.5,6.1,0.2,11.2c0,0.3,2.9-0.9,2,5c1.3,1.9,8.9-2.2,3.5,1.5c4.3,3.1-1.3,0.6-2.5,7.5
			c0.2-2.7-6.2,4.3-1,4c-2.8,0.5-0.5,3.1,1,4.5c-4,4.5-1.4,3.7-1.5,4c-1.3,5.8,0.7,3.4-0.5,5.5c4.2,2.2,0.2,2.3-0.5,4
			c-0.1,0.2,1.3,3.3,0,3.5c4-0.4,0.4,0.4-0.5,3c-0.1,0.3,1.2,0.1,1,0.7c-0.3,0.3-2,1.4-2,1.7c-0.1,1.4,1.3,0.5,2-1.7
			c0.1-0.1,1.3,0.4,2-0.7c-1.1-3.9,6.2,8.7,0.7,5.2c-0.6,0.4-0.6,0.4-1.2,0.7c2.4,1.3-1,2.6-1,3.5c0,0.9,1,1.3,1,1.5
			c-0.1,1.4-1,7.1-1,7.5c0.4,5,2.1-5.7,4.5-1.5c0.8,1.4-2,3.6-2,4c2.4,1.3,0.3,5.3,0.5,5.5c1.1,0.9,2.4-2,1.2,1.7
			c1.6-0.1,1.6-0.1,3.2-0.2c-4.7,7.3-2.9,3.4-4.7,3.7c-1.4,0.2-3.5,12.7,3,4c1.6,1.9-2.3,5,0.5,3.5c0.8,2.7-1.6,0.3-2,4.5
			c-1-1-1-1-2-2c-1.9,4.9-3.4,5.7,1.7,7.2c-1.3,7.8-0.1-1.1-4.5,4c2.9,5.6,3.5,2.6,3.7,2.7c0.5,0.3-0.1,1.3,1,2
			c0.3,0.2,4.7-0.5,1.5,4.5c-5.5-2.1-0.4,5.6-4.5,0.5c-1.9,0.8,1.7,5.4,0,6c-1,0.3-0.1-4.1-2.2,2.2c3,1.8,6.7-1.7,4,3
			c3.5-0.5-0.4,2.6-0.7-0.7c-0.4,5.2-0.6,1.1-2.2,2.7c0.5,1-2,4.5-3.5,6c4.5,0.8-0.1-3.5,6.5,0.5c-3.2,3.2-2.3,0.7-3.7,4.2
			c-0.2,0.5-1-0.8-1.2-0.2c-0.1,0.2,1,4,2,3c-2.8,4.4,2.1,4.8-0.5,7.5c5,0.2-0.9,0.6-1,2c0,0.2,2.1,4.4-0.2,0.7
			c-2.8,1.5,1.4,6.5,2.7,5.2c-0.8-4.7,3.4-0.9,5,1c-5.5,2.8-2.5,4.1-2.5,4.5c-0.1,1.1-4.7-3-3.5,1.5c-3.4-1.9-0.2,5-5,3.5
			c0.8,4.9,5.2,2.6,1,7.5c1.6,0.7,2.5-0.8,3.2,1.2c-0.5-2.4,1.1-3.4,1.2-0.7c0,0.1-1,1.4-1,1.5c-0.1,7.5,0,2.4-1.7,3.7
			c-4,3.1,2.7,4.2-0.7,5.7c-0.2,1.3,3.4,0.4-0.5,2c1.9-0.5,3.7,2.3,3.5,3c-0.1,0.4-3.8-0.5-0.2,7.2c0.8-1.1,3.1-1.9,2.2,0.2
			c-0.4,1.1-3.9-1.8,0.5,4c-1.6-0.4-1.6-0.4-3.2-0.7c-2.1,5.9,2.5,3.3,3.2,4.2c1.6,2.1-3.9,5.2-2.2,6.7c6.7,0.1-0.4,4.1,3.2,3.2
			c-3,8.8-0.6-0.7-6,4c3.3,3,1.3,3.8,4,7c-1,5.1-6.3,2.9-2.5,10c-1.9,3-1.2,7.3,1,7c-5.8,8.2,2.4,4.2-1.2,8.2
			c6.9-0.5,2.8,4.9-1.2,5.7c1.7,1.7,1.7,1.7,3.5,3.5c-1.4,2-3,3.4-2.5,6c-3.4-1.3-1.3,1.3-1.5,1.5c-0.8,0.9-4.4-0.7-1.5,7
			c-7.1,3.5,7.2,2.7-0.5,9.5c1,2.6,0.4,2.4-1,4c1.6,0.6,2.1-2.4,2.7,0.7c1.8-5.8,2.8,5.8,0.2,5.2c3.4,6.1-1.2,5.8-1,7
			c0,0.2,2.9,2,2.5,2.5c-0.4,0.6-3.9-0.7-3,1.5c0.3,0.8,1.3-0.5,1.5,0c0.2,0.7-1.2,4.2,2,3.5c-2.3,3.2-4.8-1.2-2.2,5.2
			c2.1,1,3.8-1,4-1c2.8,0.6-6,4.6,0.7,8.7c-1.8,4.1-5.9,4.9-3.7,8.2c4.1-4.3,8.7-4.5,3.2,2.2c0,0.6,9.9,0.6-2.5,4
			c4.5,5.5-2.6-2.1,1,5.5c-3,1.1,0.6,1.6-2,7c4.9,1.8,4.2-6.4,8.5-4c-6.3,4.4-4.3,6.7-6.5,9.5c4.9,5.8-4.3,3.2-4.5,4.5
			c0,0.1,1.7,0.7,2,1.5c0.1,0.2-2.7,2.3,1.7,1.7c3.9,5.6-1.2,3.8-1.2,4.7c-0.1,1.6,4,1.8,4.5,3c-0.6,0.6-2.1,0-2.2,0.2
			c-2.8,3,1.9,3.3,1.7,4.7c-0.2,2.2-4.2,3.2-0.5,5.5c-3.6,0.4,1.1,1.4,1.2,1.2c1.6-1.9-3.3-2.8,3.5-5.5c0.6,0.8,3.8,3,3.7,3.2
			c-0.3,1.1-12.5,2.1-3,4.5c-2,2.3-3.3,6.8-2.5,10c-1.1,2.4-8.5,0.2-3,4.5c-7.6,6.4-2.1,3.5-1.7,3.7c1.1,0.6,1.8,4.3,2,4.5
			c0.3,0.2,2-3.1,2.7,3.7c-3.2,0.2,4.1,2.3,1.2,3.2c-0.3,0.1-5.1-1.4-4.5-2.5c-3.6,3.6-0.2,3.4-0.2,3.7c0,0.1-2,1-2,1.5
			c0,0.1,1.7,1.1,1.5,1.5c-0.9,1.4-2.6-1.9-3-1.5c-2.9,2.7,0.7,2.5,0.7,2.7c0.5,1.4-1.7,3.4,1.5,1.5c-1.9,3.5-1.4,9.3-4.2,9.7
			c2.3,1.8,3.2,4.9,1.7,7.7c-5.8-0.5-0.7,1-1,3c5.3-0.7,0,1.7-0.2,2.2c-1.1,2.2,4,1.5,6,5.5c-1.8,6.9-0.2,0.2-5,4.5
			c3.1,0.3-2.3,7.9,5.2,4.7c1.3,2,4.9,0.6,5.2,1.7c0.9,2.5-8.2-1.4-6,7c-3.6-1.9-4.8,6.1-6.7,1.2c-1.8,2.3-4.8,2.1-5.5-1.5
			c-0.8,3.5,0.3-2.2-5.2,0.2c6.2,5.4,1.8,3.6,2,4.5c0.5,1.7,2.6-0.3,4,1c2.5,2.3-3.1,1.2-3.2,2.2c-3.7-5.8-2-1.4-5-2
			c-0.8-0.2-0.4-2.4-1-2.5c-0.4,0-1.9,1.6-2,1.5c-0.6-0.4,0.1-1.5-0.5-2c-0.2-0.1-2.8,1-2.5,2.5c-1.9-0.7,1.5-6.3-5.5-3
			c-0.3,0.2-0.7,1.9-1,2c-7-5.7-3.1,0.5-3.2,1.2c-0.4,2.3-3.7,1.3-3.2-1.7c-0.6-0.3-4.2,1.9-2.5-1.5c-4.6,4.2-1.4-0.3-2.5-1
			c-3.1-1.9-2.6,6.4-3,6.5c-3.5-2.1-2.7,1.8-6.5-1c-3.5,2.8-5.5-1.9-0.7-0.7c-2.1-5-6,1.6-8.2,0.7c-0.8,5.3-5.8,5.4-6.2,4.2
			c-0.3-0.8,1.8-1.9,2-2.5c0.6-1.5-1.9-4.3-2.2-0.2c-2-4.7-4.2-0.3-8-3.5c0.6,3.5-3.9,0.6-5-1.5c-8-0.3-8.9,3-9.5,3
			c-0.9,0-2.2-3.6-3-0.5c-0.9-2.8-3.5,0.4-4.5-3.5c-3.1,3.1-5.4-0.8-5.5,3c-5.2-2.9-2.6,0-2.7,0.2c-1.8,3-1-0.8-1-1
			c-0.3-0.8-6.8,0.2-4,1.5c-7.6,9.3,2.9-7.3-5.2-1.2c-3.1-3.4-4.8,1-5.2,1c-0.1,0-0.6-1.6-1.5-0.7c0.7,0.4,0.7,0.4,1.5,0.7
			c0.1,0-0.2,0.7,0.2,1c0.1,0.1,2.2-1.5,2.2,0.2c0,0.2-3.5,2.3-3.7,2.2c-1.2-0.1-0.3-1.9-0.5-2c-0.2-0.1-4.1,0.1-4.5-0.5
			c-0.1-0.2,1.3-2,1.2-2.2c-0.1-0.5-7.5-3.3-6.7-0.2c-2.7-2.3-3.5,4-6.5,1.5c-1.1-1-0.2-5-4-2.5c-2.1-9.2-5.2,6.4-5-2
			c-10.9-1.7-0.2-1-10.5,5c4.6-5.1-5.8-2.8-0.7-5.7c0-0.2-2.1-1.8-2.2-1.7c-2.4,0.8,2.4,6.4-4,2.5c-5.6,10.1-4.2-0.6-8.2,1.7
			c0.9-0.2-0.1-2.7-0.2-2.7c-4.6-1.8-7.2,9.5-12,7c-1.6,1.7-1.2,2.4-4,2c2.1,3,0,2.8-2,1.5c-0.8-0.5-0.3-1.9-0.5-2
			c-1.5-0.9-9.1-3.6-5.7-0.7c-7.7,5.6-0.6-4.4-6.7,1.7c-2.5-1.2-4.4,0.5-7-1.5c-2.1,0.9,0.1,1.3-1.5,2.5c-0.6,0.4-8,0-2.2-1.2
			c-2.3-5.1-0.3-3.4-0.5-4c-1.6-5.6-2.9-0.2-3.2-0.2c-0.5,0-1.6-2.8-5.5-1.5c-0.9,3.2-4.9,1.6-6,6c-2.5-3.2-2.5,3.2-8-6
			c-4.4,0.1-5.2,1.4-5.5,1.5c-0.6,0.1-8.3-2.7-4.2,6.2c-0.3,1-5.7-1.4-4.5,1.2c-9,0-18,0-27,0c-2.3-1.7-5.3-1.5-5.7-4
			c-0.6-0.2-1.3,1.1-2.2,0.2c-2.5-2.1,3-1.8-0.2-5.7c-1.3,3.8-2.8,1-3,1c-0.1,0-1.2,1.8-2,1.5c-0.2-0.1-2.1-3.8-3.5-1
			c-0.8-0.2-1.7-4.2-2.5-0.5c-1.6-5.1,0.4,2.4-5.7,1.2c6.7,4-1.4,5.1-3.7,0.7c0.2,2.9-6.4-0.2-3.2,2.2c-2.7,1.5-14,1.2-14.7-2.7
			c-0.1,1.4-6.7,5.2-5.5,1.5c-5.7-0.3-2.3,3-5.5,2.5c-1.6-0.3-4.2-8.7-6.5-9.5c-0.9,3.1-4.4,5.4-8,3c-3.3,6.2-9.7,0.4-13.5,2
			c-0.9-5.1-2.2,6.6-5-4c-2.3,0-10.5-1-5.2,0.7c-3.8,2.7-3.6,0.2-4.7,4.2c-5.5-3,0.4,3.9-4.5-0.5c-1.8,5.3-3.2,0.4-3.5,0.5
			c-0.5,0.1-1.4,9-5.2,2.7c-0.3-0.4,0.1-8.1-2.7,0.2c-4.5,0.6-10.7-3-11.5,0c-4.2-1.7-6.1,1.8-11.5-0.5c-0.7-0.3-0.4-4-3-0.5
			c-3.8-3.7-2.8,3.8-9-1.5c-1.9,4.3-6.4-1.7-9.5,1c-4.1-8.6-1.4,1.8-5.7-1.7c1.9,6.5-0.2,1.8-0.7,1.7c-0.4,0-1.2,2.8-2,2.5
			c-0.5-0.1,0-1.4-0.5-1.5c-1-0.2-0.7,1.1-1,1c-1.7-0.9-1-2.7-1.5-3c-1-0.7-5.4,3.2-3.5-2.5c-1.6,1.3-6.9,3.9-7,1.5
			c-3.7,2.2-6-4.3-7.5,1.5c-1.5-1.7-1.5-1.7-3-3.5c-6.1,3.3-3.4-2.8-6,3c-8.5,0.8-1.3-4.6-8.7-3.7c8.5-6.9-1.9-10.6,6.5-9
			c-2.3-2.2,0.4-3.7-1.7-6.2c-0.1-0.2-1.1,0.3-3-2c-5.9,6.2-1.1-1.6-4.7,0.7c1.4-5,4.5-2.6,4.7-2.7c2-1.3-1.4-2.8-1.2-3.2
			c0.4-0.9,4,2.6-0.2-5.2c-1.9,3.6-0.2-1-0.2-2.2c0-0.5-1.5-1.9-1.5-2c0.1-0.2,2.6-1.1,2.5-1.5c-0.3-0.8-3.3,1.5,2-4.5
			c-4.6,0.7-0.1-5.2-1.7-5.2c-0.2,0-0.3,1.7-1.2,1.2c-1.1-0.5,1.9-2.9-1.5-4c4.4-2.3,0.7-3.2,3.5-5c-2.8-0.4-0.6-1.2-1.2-2.2
			c-0.1-0.1-3,0.9-1.7-1.7c0.4-0.9,2.8,1.3,2-7c-4.4-0.2-2.4,3.1-4.7,3.2c0.6-12.4,1-0.5,6.2-5.7c-0.6-3.1-3.8-5.7-3.5-7.5
			c-4.5,3.1-3.7-4.2-2.7-4.2c0.5,0,0.6,4.1,2.5,0c3.4,6.3,4.6,0.6,2-1.5c-0.2-0.2-3.1,0.7-3.5-1c-2,5.1-4.2-5.3-0.2-6.7
			c-6-1.2,1-1.1,1.2-1.2c0.3-0.1,3.7-3.8,4.7-4.2c-1.6-1.7,1.2-5.4-1-13.5c-5.8-0.1,2.5-8.4,0.2-2.2c2,0.8,3.9-6-4.2-6.2
			c2.6-1.9-1.5-3.8-2-2c2.9,1.3-2.2,3.7-3,1c-1.2-3.7,3.8-3.2,4-3.5c0.3-0.4-0.1-4,5.5-8.5c-3.7-1.5,1.4-6.2-5.2-2.7
			c-0.4-3.8,6.1-6,6.2-7.2c0-0.3-2-5.3-2.2-5.2c-0.2,0-0.7,3.8-1.5-0.5c-1.5,2.6-4.6-2.1-0.7-3.7c-1.8-3.1,1-3.7,1-4
			c0-0.3-3.1-0.1,0-1.5c-4.5-4.2,5-6.3-0.7-5.7c-0.5-4.8-2.5-1.1-4.2-2.7c1.7-2.2,1.7-2.2,3.5-4.5c-0.1,0.2-3.4-3.7-3.5-4
			c0-0.1,1.2-0.6,1-2c-0.3-1.4-4.6,1,4-5c-1.7-0.5-1.7-0.5-3.5-1c2.4-1.2,0.5-1.8,1-2.5c0.6-0.9,6.3-4.8,6.5-6.5
			c0.1-0.6-3.7-2.7,1.2-1.7c2.3-4.9-1.2,0.5-3.5-1.5c-1.5,8.3-1.4,1.9-3,2c-0.4,0-0.4,3.8-1-1.5c-2.6,4.4-2-2.1-1.5-2.5
			c1.2-1.1,5.7,0.6,4.5-2.5c-1.2,3.1-4.7-3.9-4.7-4.2c0-0.4,2.4-1.4,2.5-1.5c0.4-0.8-2.5-2.5,1.5-2.5c-1.1-3.3,1.6-2.3,2-3.5
			c0.1-0.2-2.1-1.8,0.5-2.5c-9.3-6,1.5-4.7-4-5.5c2.8-1.7,2.5-3.2,2.7-3.2c0.2,0,0.5,1.4,1,1.5c1,0.1,0.4-1.9,0.5-2
			c0.5-0.5,3.4,0.4,2.2-1.7c-0.3-0.5-1.7,0.8-1.7,0.7c-1.5-0.8-1.4-5-5.2-4.2c0.5-2.5,3.6-0.8,4.5-1.5c0.6-0.5-2.4-5.3-2.5-1.5
			c0,0.3,4.3,2.9-3.2-0.2c-6.6,4,0.8-1.7-3.7-2.7c2.9-0.8,0.1-4.6,4.2-1.2c2.6-3.5-1.7-1.4-3.2-4.2c3.9-2.2-2.5-10.1,4.2-7.7
			c-0.7-3.8,5.9-0.3,2.2-8.7c3-1.4,7.2-7.5,0.7-4.7c-1.6-2,0.8-2,0.7-2.2c-0.1-1.5-3-0.3-3,1.5c1.8-8.3-5.9-4.5-3-15
			c-0.2-0.5-1.1,0.8-1.5,0c-3.3-7.5,0.6-2.3,1.5-3.5c0.5-0.7-3.5-3.1-3-5c0.3-1.1,3.7-0.7,1-6c2.8-1.8-1.4-3.5,3-3
			c-1.1-3.8,0.7-12.6,1.2-3.2c6.4-6.1,2.4-2.9,1.7-6.2c-0.7-3.6,1.5-1,2-2c0.1-0.2-1.5-1.9-1.5-2c0-0.2,1.4-3.3-0.2-3.7
			c-0.2-0.1-2.8,3.2-3.7,0.2c-1.1-3.4,4.4-1.1,2.5-8.5c-2-3.7,3.4,0.9,3.7,0.7c4-1.6-0.2-3-0.2-3.2c-0.3-0.6,1.5-1.4-1-2.5
			c3-0.2,3-0.2,6-0.5c-1-2.5-4-1.1-3.7-3.7c-2.3,4,2-4.7-3.7-5.2c-1-2.2,7.3,1-4-4.5c7.3-7.6,3.5-5.8,4-7c0.1-0.2,3.1-1.2,3-0.5
			c-0.8-8.6,3.1,4.5,4-2c0.3-2.2-0.7-0.7-1-2.5c0-0.2,3-0.5-1-2.5c5-0.9-0.1-1.1-0.2-1.2c-2-1.6,1.5-4.5-1.5-4
			c-0.2,0-0.9,2.5-3.7,1.7c5.5-5-3.1-4.8,2.2-4.7c1.2-2.3-1.6-1.4-1.7-2.2c0-0.1,1.4-0.6,1-2.5c0-0.2-2.8-1.2-0.5-3
			c0-0.2-1.5-0.5-1.5-1c0.2-4.5,3.4,3.6,4.5,0c0.1-0.2-1.4-0.2-1-1c0.1-0.3,2.1-0.4,2-1c-0.1-0.5-2.5,0.6-4-3c3.2-2.1,5.9-0.3,2-4
			c3.9-0.1,1.7-7.6,8-10c0.5-1.9-5.7,0.9-0.5-2.5c-1.5-0.1-4.8,0.6-2-1.5c-3.9-1.5,0.7-4.2-3.5-5c3.2-1.9-1.2-2.2,2-4
			c-1-1-3.2-6.5-1.5-6.5c-2.4-0.7-3.8,0.4-4.5-2.5c0.9-3.4,1-9.7,3-11.5c-3.6-1.5,1.5-3.9-0.2-6.2c-2.3,2.1-2.2-1.2,2.2-0.7
			c0.2-6.6-0.4-3.6-4-9c-0.1-0.6,1.5,0.5,2.2-0.2c6.3-5.6-3.9-5.3-4.5-5.5c-0.5-0.2,0-1.2-0.5-1.5c-0.2-0.1-5.5-1.4-1.5-2.5
			c0.2,0-0.1,3.9,1-0.5c4.2,1.5-0.8-7,4-0.5c8.2-4.2,0.2-2.1-0.2-3.2c-0.1-0.1,1.1-2.5,1-3c0-0.3-3.1-1.6,0-4
			c-4.9-0.9-0.6-3.2-0.5-3.5c0.2-1.1-4.1-1.1,1.5-2.5c0.9-4.4-4.7-2.8,2.5-5.5c-5.4-3.3,0.3-4.2,0.5-4.5c0.1-0.2-1.7-4-2.5-1
			c-0.7-6.2-0.3,0.6-1.7,1.2c-4.6-2.2-6.4,0.5-9.2-3.7c3.8-1.2-2.7-3.9,4.5-5c-1.7-0.3-2-5.1-0.7-4.7c5.4,4.1,4.1-1.1,4.2-2.2
			c0-0.3,3.2-0.9,0-1.5c3-1.7,0.1-2-2-9c-0.1-0.3,1.3,0.5-1-5.7c1.3-0.2,3.2,0.3,5.5-1.5C-15.7-51.6-14.4-51.6-13-51.6z"/>
		<path class="st1" d="M473.8-51.6c2.3,0.1,4.7-0.1,7,0c0,255.9,0,255.9,0,511.9c-79.1,0-158.3,0-237.4,0c-0.9-1.5-8.8-1.6-9.5,0
			c-6.5,0-13,0-19.5,0c-1.2-2.6,4.2-0.3,4.5-1.2c-4-8.9,3.7-6.1,4.2-6.2c0.3-0.1,1.1-1.4,5.5-1.5c5.5,9.2,5.5,2.8,8,6
			c1.1-4.4,5.1-2.8,6-6c3.9-1.3,5,1.5,5.5,1.5c0.3,0,1.6-5.4,3.2,0.2c0.2,0.6-1.8-1.1,0.5,4c-5.8,1.3,1.6,1.7,2.2,1.2
			c1.6-1.2-0.6-1.6,1.5-2.5c2.6,2,4.5,0.3,7,1.5c6.1-6.2-1,3.8,6.7-1.7c-3.4-2.9,4.3-0.1,5.7,0.7c0.2,0.1-0.3,1.5,0.5,2
			c2,1.3,4.1,1.5,2-1.5c2.8,0.4,2.4-0.3,4-2c4.8,2.5,7.4-8.8,12-7c0.1,0.1,1.1,2.5,0.2,2.7c4.1-2.3,2.7,8.4,8.2-1.7
			c6.4,3.9,1.6-1.7,4-2.5c0.1,0,2.3,1.5,2.2,1.7c-5.1,2.9,5.3,0.6,0.7,5.7c10.3-6-0.4-6.7,10.5-5c-0.2,8.4,2.9-7.2,5,2
			c3.8-2.5,2.9,1.5,4,2.5c3,2.6,3.8-3.8,6.5-1.5c-0.7-3.1,6.6-0.3,6.7,0.2c0.1,0.2-1.3,2.1-1.2,2.2c0.4,0.6,4.3,0.4,4.5,0.5
			c0.2,0.1-0.7,1.9,0.5,2c0.2,0,3.8-2,3.7-2.2c-0.1-1.8-2.2-0.2-2.2-0.2c-0.5-0.3-0.2-1-0.2-1c0.5,0,2.2-4.4,5.2-1
			c8.1-6.1-2.4,10.5,5.2,1.2c-2.8-1.3,3.7-2.3,4-1.5c0,0.2-0.8,4,1,1c0.1-0.2-2.5-3.2,2.7-0.2c0.1-3.8,2.4,0.1,5.5-3
			c1,3.9,3.6,0.7,4.5,3.5c0.8-3.1,2.1,0.5,3,0.5c0.6,0,1.5-3.3,9.5-3c1.1,2.1,5.6,5,5,1.5c3.8,3.2,6-1.2,8,3.5
			c0.3-4,2.8-1.3,2.2,0.2c-0.2,0.6-2.3,1.7-2,2.5c0.4,1.2,5.4,1.1,6.2-4.2c2.2,0.8,6.2-5.8,8.2-0.7c-4.7-1.2-2.7,3.6,0.7,0.7
			c3.8,2.8,3-1.1,6.5,1c0.4-0.1-0.1-8.4,3-6.5c1.1,0.7-2.1,5.2,2.5,1c-1.7,3.4,1.9,1.2,2.5,1.5c-0.4,3.1,2.9,4,3.2,1.7
			c0.1-0.7-3.7-6.9,3.2-1.2c0.3-0.1,0.7-1.8,1-2c7-3.3,3.6,2.3,5.5,3c-0.3-1.5,2.3-2.6,2.5-2.5c0.6,0.5-0.1,1.6,0.5,2
			c0.1,0.1,1.6-1.5,2-1.5c0.6,0.1,0.2,2.3,1,2.5c3,0.6,1.3-3.8,5,2c0.2-1,5.7,0.1,3.2-2.2c-1.4-1.3-3.5,0.7-4-1
			c-0.2-0.9,4.2,0.9-2-4.5c5.6-2.5,4.5,3.2,5.2-0.2c0.7,3.6,3.7,3.8,5.5,1.5c2,4.8,3.2-3.1,6.7-1.2c-2.2-8.4,6.9-4.5,6-7
			c-0.4-1.1-4,0.2-5.2-1.7c-7.5,3.1-2.2-4.4-5.2-4.7c4.8-4.3,3.2,2.4,5-4.5c-2-4-7.1-3.3-6-5.5c0.3-0.6,5.5-3,0.2-2.2
			c0.3-2-4.8-3.5,1-3c1.4-2.9,0.5-5.9-1.7-7.7c2.8-0.4,2.4-6.2,4.2-9.7c-3.2,1.9-1-0.1-1.5-1.5c-0.1-0.2-3.6-0.1-0.7-2.7
			c0.4-0.4,2.1,2.9,3,1.5c0.2-0.4-1.5-1.4-1.5-1.5c0-0.5,2-1.4,2-1.5c0-0.4-3.3-0.1,0.2-3.7c-0.6,1,4.2,2.6,4.5,2.5
			c2.9-1-4.5-3-1.2-3.2c-0.7-6.8-2.5-3.5-2.7-3.7c-0.2-0.2-0.9-3.9-2-4.5c-0.4-0.2-5.9,2.7,1.7-3.7c-5.5-4.3,1.9-2.1,3-4.5
			c-0.8-3.2,0.5-7.7,2.5-10c-9.5-2.4,2.7-3.4,3-4.5c0.1-0.2-3.1-2.5-3.7-3.2c-6.8,2.7-1.9,3.6-3.5,5.5c-0.1,0.2-4.9-0.8-1.2-1.2
			c-3.7-2.3,0.3-3.3,0.5-5.5c0.1-1.4-4.6-1.7-1.7-4.7c0.2-0.2,1.6,0.3,2.2-0.2c-0.5-1.2-4.6-1.4-4.5-3c0-0.9,5.2,0.8,1.2-4.7
			c-4.4,0.6-1.7-1.5-1.7-1.7c-0.3-0.8-2-1.4-2-1.5c0.2-1.3,9.4,1.3,4.5-4.5c2.2-2.8,0.2-5.1,6.5-9.5c-4.3-2.4-3.6,5.8-8.5,4
			c2.6-5.4-1-5.9,2-7c-3.6-7.6,3.5,0-1-5.5c12.4-3.4,2.5-3.4,2.5-4c5.4-6.8,0.9-6.6-3.2-2.2c-2.1-3.4,1.9-4.1,3.7-8.2
			c-6.7-4.1,2.1-8.2-0.7-8.7c-0.2,0-1.9,2-4,1c-2.5-6.4,0-2,2.2-5.2c-3.2,0.7-1.8-2.8-2-3.5c-0.2-0.5-1.2,0.8-1.5,0
			c-0.9-2.2,2.6-0.9,3-1.5c0.4-0.5-2.5-2.3-2.5-2.5c-0.2-1.2,4.4-0.9,1-7c2.5,0.6,1.5-11.1-0.2-5.2c-0.6-3.1-1.2-0.2-2.7-0.7
			c1.4-1.6,2-1.4,1-4c7.7-6.8-6.6-6,0.5-9.5c-2.9-7.7,0.7-6.1,1.5-7c0.2-0.2-1.9-2.8,1.5-1.5c-0.5-2.6,1.1-4,2.5-6
			c-1.7-1.7-1.7-1.7-3.5-3.5c4.1-0.9,8.1-6.3,1.2-5.7c3.7-4-4.5-0.1,1.2-8.2c-2.2,0.3-2.9-4-1-7c-3.8-7.1,1.5-4.9,2.5-10
			c-2.7-3.2-0.7-4-4-7c5.4-4.7,3,4.8,6-4c-3.6,0.8,3.4-3.2-3.2-3.2c-1.6-1.5,3.8-4.6,2.2-6.7c-0.7-1-5.3,1.7-3.2-4.2
			c1.6,0.4,1.6,0.4,3.2,0.7c-4.4-5.8-0.9-2.9-0.5-4c0.9-2.2-1.4-1.4-2.2-0.2c-3.5-7.7,0.1-6.8,0.2-7.2c0.2-0.7-1.6-3.5-3.5-3
			c3.9-1.6,0.3-0.7,0.5-2c3.4-1.5-3.2-2.6,0.7-5.7c1.7-1.3,1.7,3.7,1.7-3.7c0-0.1,1-1.4,1-1.5c-0.2-2.7-1.7-1.6-1.2,0.7
			c-0.7-2-1.7-0.6-3.2-1.2c4.2-4.9-0.2-2.6-1-7.5c4.8,1.5,1.6-5.4,5-3.5c-1.2-4.5,3.4-0.4,3.5-1.5c0-0.4-3-1.7,2.5-4.5
			c-1.6-1.9-5.8-5.7-5-1c-1.3,1.2-5.6-3.7-2.7-5.2c2.3,3.7,0.2-0.5,0.2-0.7c0.1-1.4,6-1.8,1-2c2.6-2.7-2.3-3.1,0.5-7.5
			c-1,1-2.1-2.8-2-3c0.3-0.5,1.1,0.7,1.2,0.2c1.5-3.6,0.6-1,3.7-4.2c-6.6-4-2,0.3-6.5-0.5c1.5-1.4,4-5,3.5-6
			c1.6-1.6,1.8,2.5,2.2-2.7c0.4,3.3,4.3,0.3,0.7,0.7c2.7-4.7-1-1.2-4-3c2.1-6.4,1.3-1.9,2.2-2.2c1.7-0.6-1.9-5.2,0-6
			c4.1,5.1-1-2.6,4.5-0.5c3.2-5-1.2-4.3-1.5-4.5c-1.1-0.7-0.5-1.7-1-2c-0.3-0.2-0.8,2.9-3.7-2.7c4.4-5.1,3.2,3.8,4.5-4
			c-5.2-1.5-3.6-2.3-1.7-7.2c1,1,1,1,2,2c0.4-4.2,2.8-1.8,2-4.5c-2.8,1.5,1.1-1.6-0.5-3.5c-6.5,8.7-4.4-3.8-3-4
			c1.8-0.3,0.1,3.5,4.7-3.7c-1.6,0.1-1.6,0.1-3.2,0.2c1.1-3.7-0.2-0.9-1.2-1.7c-0.2-0.2,1.9-4.2-0.5-5.5c0-0.4,2.8-2.6,2-4
			c-2.4-4.2-4.1,6.5-4.5,1.5c0-0.4,0.9-6.1,1-7.5c0-0.2-1-0.6-1-1.5c0-0.9,3.4-2.2,1-3.5c0.6-0.4,0.6-0.4,1.2-0.7
			c5.5,3.5-1.9-9.1-0.7-5.2c-0.7,1.1-1.9,0.7-2,0.7c0.2-0.6-1.1-0.5-1-0.7c0.9-2.6,4.5-3.4,0.5-3c1.3-0.2-0.1-3.2,0-3.5
			c0.7-1.7,4.7-1.8,0.5-4c1.2-2.1-0.8,0.3,0.5-5.5c0.1-0.3-2.5,0.5,1.5-4c-1.5-1.4-3.8-4-1-4.5c-5.2,0.3,1.2-6.7,1-4
			c1.2-6.9,6.8-4.4,2.5-7.5c5.4-3.7-2.2,0.4-3.5-1.5c0.9-5.9-2-4.7-2-5c3.3-5.2-4.1-6-0.2-11.2c1.7,4.2,5.4-2.3,3.2-3.2
			c3.7-3.3-3.8-3.4-2.5-7.5c2.6-0.6,3-2.7,3.2-2.7c2.6-0.4,2.1,6.8,3.7,1.2c0-0.1-0.8-1.2-1-1.5c3,0.1-0.1-2.1,3.5-5
			c1-5.7-0.6-1.1-4-3.5C478.2-49.6,464.7-42.5,473.8-51.6z"/>
		<path class="st1" d="M-22.5-50.1c2.3,6.3,0.9,5.4,1,5.7c2.1,7,5,7.3,2,9c3.2,0.6,0,1.2,0,1.5c-0.1,1.2,1.1,6.4-4.2,2.2
			c-1.3-0.3-1,4.5,0.7,4.7c-7.2,1.1-0.7,3.8-4.5,5c2.8,4.2,4.7,1.6,9.2,3.7c1.5-0.7,1-7.5,1.7-1.2c0.8-3,2.6,0.8,2.5,1
			c-0.2,0.3-5.9,1.2-0.5,4.5c-7.2,2.7-1.6,1.1-2.5,5.5c-5.6,1.4-1.3,1.4-1.5,2.5c-0.1,0.3-4.4,2.6,0.5,3.5c-3.1,2.4,0,3.7,0,4
			c0.1,0.5-1.1,2.9-1,3c0.4,1.2,8.4-1,0.2,3.2c-4.8-6.5,0.2,2-4,0.5c-1.1,4.4-0.8,0.5-1,0.5c-4,1,1.3,2.4,1.5,2.5
			c0.5,0.3,0,1.3,0.5,1.5c0.6,0.2,10.8-0.1,4.5,5.5c-0.8,0.7-2.3-0.4-2.2,0.2c3.6,5.4,4.2,2.4,4,9c-4.5-0.5-4.6,2.8-2.2,0.7
			c1.8,2.4-3.4,4.7,0.2,6.2c-2,1.8-2.1,8.1-3,11.5c0.7,2.9,2.1,1.8,4.5,2.5c-1.7,0,0.5,5.5,1.5,6.5c-3.2,1.8,1.2,2.1-2,4
			c4.2,0.8-0.4,3.5,3.5,5c-2.8,2.1,0.5,1.4,2,1.5c-5.2,3.4,1,0.6,0.5,2.5c-6.3,2.4-4.1,9.9-8,10c3.9,3.7,1.2,1.9-2,4
			c1.5,3.6,3.9,2.5,4,3c0.1,0.6-1.9,0.7-2,1c-0.4,0.8,1.1,0.8,1,1c-1.1,3.6-4.3-4.5-4.5,0c0,0.5,1.5,0.8,1.5,1
			c-2.3,1.8,0.5,2.8,0.5,3c0.4,1.9-1,2.4-1,2.5c0.2,0.8,3,0,1.7,2.2c-5.4-0.1,3.3-0.3-2.2,4.7c2.8,0.7,3.5-1.7,3.7-1.7
			c3-0.5-0.5,2.4,1.5,4c0.2,0.2,5.2,0.4,0.2,1.2c4,2,1,2.3,1,2.5c0.3,1.8,1.3,0.3,1,2.5c-0.9,6.5-4.8-6.6-4,2c0.1-0.7-2.9,0.3-3,0.5
			c-0.5,1.2,3.3-0.6-4,7c11.3,5.5,3,2.3,4,4.5c5.7,0.5,1.5,9.3,3.7,5.2c-0.2,2.7,2.8,1.3,3.7,3.7c-3,0.2-3,0.2-6,0.5
			c2.5,1.1,0.7,1.9,1,2.5c0.1,0.2,4.3,1.6,0.2,3.2c-0.3,0.1-5.7-4.4-3.7-0.7c1.9,7.4-3.6,5.1-2.5,8.5c0.9,3,3.5-0.3,3.7-0.2
			c1.6,0.5,0.2,3.5,0.2,3.7c0,0.1,1.6,1.8,1.5,2c-0.5,1-2.7-1.6-2,2c0.6,3.4,4.6,0.2-1.7,6.2c-0.6-9.3-2.3-0.6-1.2,3.2
			c-4.4-0.5-0.2,1.2-3,3c2.7,5.3-0.7,4.9-1,6c-0.5,1.9,3.5,4.3,3,5c-0.9,1.2-4.8-4-1.5,3.5c0.4,0.8,1.3-0.5,1.5,0
			c-2.9,10.5,4.8,6.7,3,15c0-1.8,2.9-3,3-1.5c0,0.2-2.3,0.3-0.7,2.2c6.4-2.7,2.2,3.3-0.7,4.7c3.6,8.5-2.9,5-2.2,8.7
			c-6.8-2.3-0.3,5.5-4.2,7.7c1.6,2.8,5.9,0.7,3.2,4.2c-4.2-3.4-1.4,0.5-4.2,1.2c4.5,1-2.9,6.7,3.7,2.7c7.5,3.2,3.2,0.6,3.2,0.2
			c0.1-3.8,3.1,1,2.5,1.5c-0.9,0.7-4-1-4.5,1.5c3.9-0.8,3.7,3.5,5.2,4.2c0.1,0,1.5-1.3,1.7-0.7c1.2,2.1-1.7,1.3-2.2,1.7
			c-0.1,0.1,0.5,2.1-0.5,2c-0.5-0.1-0.8-1.5-1-1.5c-0.2,0,0,1.5-2.7,3.2c5.5,0.8-5.3-0.5,4,5.5c-2.6,0.7-0.4,2.3-0.5,2.5
			c-0.4,1.2-3.1,0.2-2,3.5c-4,0-1.1,1.7-1.5,2.5c-0.1,0.1-2.5,1.1-2.5,1.5c0,0.4,3.6,7.3,4.7,4.2c1.2,3.1-3.3,1.4-4.5,2.5
			c-0.5,0.4-1.1,6.9,1.5,2.5c0.6,5.3,0.6,1.5,1,1.5c1.6-0.1,1.5,6.3,3-2c2.3,2,5.8-3.4,3.5,1.5c-5-1-1.2,1.1-1.2,1.7
			c-0.2,1.7-5.9,5.6-6.5,6.5c-0.5,0.7,1.4,1.3-1,2.5c1.7,0.5,1.7,0.5,3.5,1c-8.6,6-4.3,3.5-4,5c0.2,1.4-1,1.9-1,2
			c0.1,0.3,3.4,4.2,3.5,4c-1.7,2.2-1.7,2.2-3.5,4.5c1.8,1.7,3.8-2,4.2,2.7c5.8-0.6-3.8,1.5,0.7,5.7c-3.1,1.4,0,1.2,0,1.5
			c0,0.2-2.8,0.9-1,4c-3.8,1.7-0.7,6.4,0.7,3.7c0.8,4.3,1.3,0.5,1.5,0.5c0.3,0,2.3,5,2.2,5.2c-0.2,1.3-6.6,3.4-6.2,7.2
			c6.6-3.5,1.6,1.3,5.2,2.7c-5.6,4.4-5.2,8.1-5.5,8.5c-0.2,0.3-5.1-0.2-4,3.5c0.8,2.7,5.9,0.3,3-1c0.5-1.8,4.6,0.1,2,2
			c8.1,0.3,6.2,7.1,4.2,6.2c2.2-6.2-6,2.1-0.2,2.2c2.2,8.1-0.6,11.8,1,13.5c-1,0.5-4.5,4.1-4.7,4.2c-0.3,0.1-7.3,0.1-1.2,1.2
			c-3.9,1.4-1.8,11.9,0.2,6.7c0.4,1.7,3.3,0.8,3.5,1c2.6,2.1,1.4,7.8-2,1.5c-1.9,4.1-2,0-2.5,0c-0.9,0-1.8,7.3,2.7,4.2
			c-0.3,1.8,2.9,4.4,3.5,7.5c-5.2,5.3-5.6-6.7-6.2,5.7c2.3-0.1,0.3-3.4,4.7-3.2c0.8,8.3-1.6,6.1-2,7c-1.3,2.6,1.7,1.6,1.7,1.7
			c0.7,1.1-1.5,1.8,1.2,2.2c-2.8,1.8,0.9,2.7-3.5,5c3.4,1.1,0.4,3.5,1.5,4c0.9,0.4,1-1.3,1.2-1.2c1.6,0-2.8,6,1.7,5.2
			c-5.3,6-2.3,3.7-2,4.5c0.1,0.4-2.4,1.3-2.5,1.5c0,0.1,1.5,1.5,1.5,2c0.1,1.3-1.7,5.8,0.2,2.2c4.2,7.8,0.6,4.3,0.2,5.2
			c-0.2,0.4,3.2,2,1.2,3.2c-0.3,0.2-3.4-2.3-4.7,2.7c3.7-2.4-1.2,5.5,4.7-0.7c1.9,2.3,2.9,1.8,3,2c2.2,2.5-0.6,4.1,1.7,6.2
			c-8.4-1.6,2,2.1-6.5,9c7.4-0.8,0.3,4.6,8.7,3.7c2.6-5.8-0.1,0.3,6-3c1.5,1.7,1.5,1.7,3,3.5c1.5-5.8,3.8,0.7,7.5-1.5
			c0.1,2.4,5.4-0.2,7-1.5c-1.9,5.7,2.5,1.8,3.5,2.5c0.5,0.3-0.2,2.1,1.5,3c0.3,0.1,0-1.2,1-1c0.5,0.1,0,1.4,0.5,1.5
			c0.8,0.3,1.6-2.5,2-2.5c0.6,0,2.6,4.7,0.7-1.7c4.3,3.5,1.6-6.8,5.7,1.7c3.1-2.7,7.6,3.3,9.5-1c6.2,5.3,5.2-2.2,9,1.5
			c2.6-3.5,2.3,0.2,3,0.5c5.4,2.3,7.3-1.2,11.5,0.5c0.8-3,7,0.6,11.5,0c2.9-8.4,2.5-0.7,2.7-0.2c3.9,6.3,4.8-2.6,5.2-2.7
			c0.3-0.1,1.7,4.8,3.5-0.5c4.9,4.3-1-2.5,4.5,0.5c1.2-4.1,0.9-1.5,4.7-4.2c-5.2-1.8,2.9-0.8,5.2-0.7c2.8,10.6,4.1-1.1,5,4
			c3.8-1.6,10.2,4.2,13.5-2c3.6,2.4,7.1,0.1,8-3c2.3,0.8,4.9,9.2,6.5,9.5c3.2,0.5-0.2-2.8,5.5-2.5c-1.2,3.7,5.4-0.1,5.5-1.5
			c0.7,3.9,12,4.2,14.7,2.7c-3.2-2.5,3.4,0.6,3.2-2.2c2.3,4.3,10.4,3.2,3.7-0.7c6.2,1.1,4.2-6.3,5.7-1.2c0.8-3.7,1.7,0.3,2.5,0.5
			c1.4-2.8,3.3,0.9,3.5,1c0.8,0.3,1.9-1.5,2-1.5c0.2,0,1.7,2.8,3-1c3.3,3.9-2.2,3.6,0.2,5.7c1,0.8,1.7-0.4,2.2-0.2
			c0.5,2.5,3.4,2.3,5.7,4c-1.2,0-2.3,0-3.5,0c-0.1,0,0-0.4-0.7-1c-0.4,0-0.2,1-0.2,1c-5.3,0-10.7,0-16,0c-0.9-0.8-3-1.7-3.5,0
			c-9.3,0-18.7,0-28,0c-0.5-1.3-1.5-1.4-2,0c-54.8,0-109.6,0-164.5,0c0-34,0-68,0-102c1.4-1,1.3-8.7,0-9.5c0-25.3,0-50.7,0-76
			c1.2-0.4,1.2-1.1,0-1.5c0-43.7,0-87.3,0-131c0.9-0.6,1.3-1.7,0-2c0-5.3,0-10.7,0-16c1.5,1.2,1.2-7.5,0-7c0-8.5,0-17,0-25.5
			c0.8-0.8,1.5-2.6,0-3c0-13,0-26,0-39c1.1,0.5,1.3-3.6,0-3c0-26.6-0.3-53.3,0-80c1.5-3.2,0.8-9.7,2-13.7
			C-28.8-49.4-23.6-49.9-22.5-50.1z"/>
		<path class="st1" d="M309.4-51.6c-3.2,5.1,5.3-1,7.2,2.5c2.5-2,6.8-0.5,10-0.5c1.5,0,1.4-2.6,4,0.5c3.3-1.3,7.6-0.4,11.2-2.5
			c10.8,0,21.7,0,32.5,0c1.1,2.2-1.2-0.8-4.2,4.5c-2.8-2.4-2.4,1.2-4.2,1.7c-0.4,3.5,8.3,2-1.2,4.2c-1.5-0.7-1.5-0.7-3-1.5
			c-2.1,6.6-5.1,2.6-5.5,2.5c-0.3-0.1-5.4,1,0.7-1.7c-5.2-3.3-4.4,1.3-6.2-1.7c-3.3,6.7-1.2-3.5-2-3.5c-1.2,1.8-5.8,2.9-7,3
			c-0.2,0-0.7-2.8-2.5,0c-0.6-2.1-1.8-0.1-2.7-0.7c-0.3-0.2-1.9-6-4.5-2c-1.5,2.4,2.5,1.4-0.2,2.7c-5.4-3.6-3.3,5.7-7.5-1
			c-2,1.7-2,1.7-4,3.5c-1.6-3.9-4.2,1.4-7.2-1.2c2.6-3.5-4.1-1.5-7.2-2.7c0.6,1.7-7,3.8-9,1c-0.3,3.2-2.3-0.8-3.5,2.5
			c-4.4-3.3-0.5,2.4-5.5-0.5c1.1,0.6-2.5,2-2.7,2c-1.4,0.3-0.7-1.2-1.7-1c-0.4,0.1-4.8,4.3-6-0.5c-1,2.7-4-3.5-3.7-4.2
			c0-0.1,1.6,0.2,1.5-0.5c-0.1-0.8-2.6-2.5-3.5-2.7c0.8,0,0.4-1,0.7-1c8.8,0,7.6,1.5,8,1.5c0.3,0,1.1-1.5,5.5,0
			c2.9-2.9,10.8,2.2,10.7-2.5C300.7-51.6,305.1-51.6,309.4-51.6z"/>
		<path class="st1" d="M433.4-51.6c-1.7,0.9-1.7,0.9-3.5,1.7c4.6,6.6,6.7,0,7.2-0.2c0.3-0.1,5.4,0.6,6.5,0.5c0.4,0,0.1-1,0.5-1
			c0.2,0,0.4,1.1,3.7,1c-1.3,1-1,3.1,0,3.7c-3,0.3-3.8,3.6-1.2,2.7c0.3-0.1,2.9-4.3,0,3c-2.5-1.2-2.5-1.2-5-2.5
			c0.7,5.9-3.2,0.9-5.5,2c-0.6-5.2-2.4-1.5-3.5-1.5c-1.3,0-0.6-3.1-1.5,0c-0.9-2.5-1.8,0.5-2,0.5c-1,0.2-0.9-3.6-6-0.5
			c0-5.1-1.4-1.7-2-2c-1-0.5-1.1-4.2-3.7-1.2c4,1.5-3.2-0.5-2,4c-6.9,4.1-2.9-5-4.2-5.2c-1.1-0.2-0.9,3.6-4.2,0.7
			c-1.4,3,3.8,1.4-1.7,3.2c-0.3,0.1-0.2-1.1-0.5-1c-0.6,0.1-1.1,2.1-1.5,2c-0.3-0.1-0.8-4.9-2.5,1.5c-6.1,0.5-3.3-2-4.5-2
			c0.8,1.3-6.2,2.2-6.5,2c-0.6-0.4-0.7-2.4-1-2.5c-0.4-0.2-2.4,1-2.5,1c-0.3-0.1-4-4.2-4.5-4c-0.4,0.1-2.1,3.2-2.5,3
			c-1.5-0.7,4-3.6-3.7-6.7c8.1-2,6.8,2.2,9.2-1.2c1.9-0.1,7.7,1,8.5,1c0.4,0-0.2-0.9,1-1c0.8,0-0.6,2,3.2,0.5c1.9,1,13.5,0.7,17-1.5
			C420.7-51.6,427-51.6,433.4-51.6z"/>
		<path class="st2" d="M25-51.6c-2.6,4.3,3.9-2.7,2.2,6c-4.3-1.2-6.3,3.3-10,0.5c-4.5,4.7-7.2,0.4-6-0.5c0.2-0.1,3.2,2,0.7-1.7
			c5.5,1.7,2.8-2.7,0.2-3.2c-0.1,0-1.9,1-2,1c-4.8-0.3-19.5-1.9-19,2.5c-8.9,0.3,0.8-1.8-4.2-4.5C-0.4-51.7,12.3-51.6,25-51.6z"/>
		<path class="st2" d="M170.4-51.6c-0.5,1.1-8.9,2.5-9.7,2.5c-1,0-1.4-1-2-1c-0.2,0-0.6,1-3,1c-0.2,0-0.7-1.5-3.5-1.5
			c-0.4,0-0.1,1-0.5,1c-2.6,0-5.1-0.6-7.5-0.5c-0.3,0-4,1.6-6,0c-0.6,2.8-6.8,6.6-8,6.5c-0.1,0-0.8-0.7-1.2-0.7
			c3-2.7-0.2-3.4,1.7-6.2c-4.6,2.3-9.4-1.7-13.5,1.5c-3.5-3.1-9.9,0.9-10.2-2.5C128.1-51.6,149.3-51.6,170.4-51.6z"/>
		<path class="st2" d="M232.9-51.6c-2.9,1.2-2.9,1.2-5.7,2.5c-9-3.9-2.5,2.4-7.5,2.5c2.7-6.4-3.9,3.6-7.5,4c-1,0.1-1.2-1-1.2-1
			c5.9-6.2,0-1.7-0.2-6c-3.2-1.1-3.9,2.2-4.2-2C215.2-51.6,224.1-51.6,232.9-51.6z"/>
		<path class="st1" d="M210.9-43.6c-4.3-1-1.5-1.6-2.2-2c-2.8-1.5-4.2,0.5-4.5,0.5c-1.8-0.1-7.9-1.1-8.2-2.7c-0.1-0.3,3.1,0.1,0-1.7
			c0.1,0,1.6-1,1.7-1c0.5,0,3.1,2,8.2-1c0.2,0,0.3,0,0.5,0c0.3,4.2,1.1,0.9,4.2,2C210.9-45.3,216.9-49.8,210.9-43.6z"/>
		<path class="st2" d="M56.5-51.6c-4.6,3-2,2.7-2.5,3.2c-2.5,2.8-6.3-2.3-6.2,3.2c-8.8-2.7-7-4.7-7.5-5c-0.3-0.2-8.2,2-2.2-1.5
			C44.1-51.6,50.3-51.6,56.5-51.6z"/>
		<path class="st2" d="M296.4-51.6c0,4.7-7.8-0.4-10.7,2.5c-4.4-1.5-5.2,0-5.5,0c-0.4,0,0.8-1.5-8-1.5c-0.4,0,0,1-0.7,1
			c-3.3,0.1-9.7-1.9-10.2,1.5c-0.9-1.7-0.9-1.7-1.7-3.5C271.7-51.6,284.1-51.6,296.4-51.6z"/>
		<path class="st2" d="M458.3-51.6c-0.4,4.4-2.8,1-3.2,1c-0.4,0-0.9,0.9-7.2,1c-3.4,0.1-3.6-1-3.7-1c-0.4,0-0.1,1-0.5,1
			c-1.1,0.1-6.2-0.6-6.5-0.5c-0.5,0.2-2.7,6.8-7.2,0.2c1.7-0.9,1.7-0.9,3.5-1.7C441.7-51.6,450-51.7,458.3-51.6z"/>
		<path class="st2" d="M341.9-51.6c-3.6,2.1-7.9,1.2-11.2,2.5c-2.6-3.1-2.5-0.5-4-0.5c-3.1,0-7.5-1.5-10,0.5
			c-2-3.5-10.5,2.6-7.2-2.5C320.2-51.6,331-51.6,341.9-51.6z"/>
		<path class="st2" d="M-17-51.6c-2.3,1.8-4.2,1.3-5.5,1.5c-1.1,0.2-6.2,0.7-6.5,1.2c-1.2,4.1-0.5,10.5-2,13.7c0.1-5.5,0-11,0-16.5
			C-26.4-51.7-21.7-51.5-17-51.6z"/>
		<path class="st2" d="M254.9-51.6c0.5,1.4-12,3.2-10.7,1c0.1,1.8-7.6,1.1-6.7-1C243.2-51.6,249.1-51.6,254.9-51.6z"/>
		<path class="st2" d="M414.4-51.6c-3.5,2.2-15.1,2.5-17,1.5c0.6-0.2,1.8-0.7,2-1.5C404.4-51.6,409.4-51.6,414.4-51.6z"/>
		<path class="st2" d="M205.9-51.6c-5.2,3-7.8,1-8.2,1c-0.2,0-1.6,1-1.7,1c-1.6-0.1-7-0.7-5-2C195.9-51.6,200.9-51.6,205.9-51.6z"/>
		<path class="st2" d="M243.4,460.3c-3.2,0-6.3,0-9.5,0C234.6,458.6,242.5,458.8,243.4,460.3z"/>
		<path class="st2" d="M-31,358.3c0-3.2,0-6.3,0-9.5C-29.7,349.6-29.6,357.3-31,358.3z"/>
		<path class="st2" d="M-31,122.4c0-2.3,0-4.7,0-7C-29.8,114.9-29.5,123.5-31,122.4z"/>
		<path class="st2" d="M-31,47.9c0-1,0-2,0-3C-29.7,44.3-29.9,48.4-31,47.9z"/>
		<path class="st2" d="M166.9,460.3c-1.2,0-2.3,0-3.5,0C163.9,458.5,166,459.5,166.9,460.3z"/>
		<path class="st2" d="M-31,89.9c0-1,0-2,0-3C-29.5,87.2-30.2,89.1-31,89.9z"/>
		<path class="st2" d="M135.4,460.3c-0.7,0-1.3,0-2,0C134,458.9,135,458.9,135.4,460.3z"/>
		<path class="st2" d="M-31,140.3c0-0.7,0-1.3,0-2C-29.8,138.6-30.1,139.8-31,140.3z"/>
		<path class="st2" d="M-31,272.8c0-0.5,0-1,0-1.5C-29.8,271.8-29.8,272.4-31,272.8z"/>
		<path class="st2" d="M183.9,460.3c-0.5,0-0.5,0-1,0c0.1,0-0.2-1,0.2-1C184,459.8,183.9,460.3,183.9,460.3z"/>
		<path class="st1" d="M74.5,324.3c3.6,1.1,2.1,2.6,3.5,3.7c0.3,0.2,5,0.6,3.5,3c0.7,0.1,0.7,0.1,1.5,0.2c3.7-2.4,6.9-7.3,5.7-3
			c7-1.6-5.5,4.5-0.5,5c0.3,0,0.7-1,0.7-1c1.5-0.3,1.6-1,1.7-1c0.5-0.1-1,3,3-0.5c0.4,3.1,3.3-0.8,1.2,2.7c5.1,2.1,0.6,5,3,5.2
			c-9.1,5.3-1.9,2.3,1.2,3.5c0.2-0.1-1-1.9,2-3c-2.7,4.7,0.3,0.9,0.5,1c0.9,0.4-0.8,2.3,0,2.5c0.4,0.1,8.2-6.2,1.2,0.2
			c2.2-0.2,2.2-0.2,4.5-0.5c-6.6,7.6,1.2,0.4,1.5,2.5c0.1,0.4-3.8,7.8-5.7,6.2c-0.9,1.7-0.9,1.7-1.7,3.5c-6.1-1.8-0.8-1.8-0.5-2.2
			c-3.7-4.4-4.7,3-3.2-5.7c-5.7,2.9-15.1,11.9-9.2,3.7c-8.3-7.3-6.1-0.5-12-4.5c0.3-6.5-0.2-3.9-2.5-4.2c-0.7-0.7-0.7-0.7-1.5-1.5
			c2-4.5-1-4-1-4.2c8-4.8,0.3-5.7,0-6.5c0-0.1,1-0.9,1-1C71.5,326.6,67.5,322.2,74.5,324.3z"/>
		<path class="st3" d="M387.1,124.4c8.7-1.2,10.2,11.5,3,13C379.4,139.6,380.3,125.3,387.1,124.4z"/>
		<path class="st3" d="M53.2,327.8c5.9-1.1,7.1,7.5,2.5,8.5C49.2,337.7,48.5,328.7,53.2,327.8z"/>
		<path class="st4" d="M40.7,259.3c1.9-1.1,4.5,5,2.5,6C40.4,266.7,40.8,260.9,40.7,259.3z"/>
		<path class="st5" d="M180.7,15.9c0.5,7.2,0.5,7.2,1,14.5C180,25.7,180.2,20.7,180.7,15.9z"/>
		<path class="st6" d="M330.6,91.4c2.3-0.1,0.2,3,0,3C330.3,94.4,328.8,91.5,330.6,91.4z"/>
		<path class="st7" d="M72.5,340.3c0.7,0.7,0.7,0.7,1.5,1.5c-1-0.2-2.2,0.5-3-0.7C71.6,340,72.4,340.4,72.5,340.3z"/>
		<path class="st7" d="M68.2,333.3c1.2-0.1,0.6,2.6-0.5,2C67,334.9,67.7,333.3,68.2,333.3z"/>
		<path class="st1" d="M467.8,31.9c-0.7,2.3-2.1,3.2-2,1.7C465.9,33.3,467.5,32.2,467.8,31.9z"/>
		<path class="st1" d="M346.9,453.3c-0.7-0.4-0.7-0.4-1.5-0.7C346.3,451.6,346.8,453.2,346.9,453.3z"/>
		<path class="st1" d="M284.9-40.6c1.1-0.3-0.1,2-0.2,2C284-38.8,284.7-40.6,284.9-40.6z"/>
		<path class="st6" d="M72.7,352.3c1.9-0.3-0.2,2.1-0.7,0.7C71.9,353,72.6,352.3,72.7,352.3z"/>
	</g>
</g>
<g>
	<g id="Background_00000069371266564220258840000010727702105415765134_" class="st0">
		<path class="st8" d="M521,2.5c0,256,0,256,0,512c-256,0-256,0-512,0c0-256,0-256,0-512C265,2.5,265,2.5,521,2.5z"/>
		<path class="st9" d="M52.2,9c233.1,0.4,233.1,0.4,466.2,0.8c-0.1,248.4-0.1,248.4-0.2,496.8c-247,0.2-247,0.2-494,0.5
			c-5.4-0.6-5.4-0.6-10.8-1.2c0-247.8,0-247.8,0-495.5C32.9,9.6,32.9,9.6,52.2,9z"/>
		<path class="st10" d="M277.5,429c11.2,0,22.3-0.2,33.5,0c1,1.9,7.8,3.7,8.5,5.2c0.1,0.2,0.1,4.3,0,4.5c-0.7,2.2-10.7,4.4-11.5,5.8
			c-2.5,0.2-5,0.4-7.5,0.5c-16.7,0.9-33.3,0.3-50,0.5c-8.2-1.5-19.2-1.3-27-3c-5.7-1.3-19.4-5.8-11-12.5c1.7-0.3,3.3,0.7,3-1
			C236.2,429,256.8,428.9,277.5,429z"/>
		<path class="st8" d="M391,243c0,0.1,1,0.9,1,1.2c0.7,5.4,0.6,10.9,1.5,16.2c-7.1,3.3-16.9,18.6-20.8,21.5
			c-5.7,4.3-2.9-0.5-6.2-12.8c-1.7-6.2-4.4-12.2-6-18.5c5.6-4.1,9.1-6.2,11.5-12.8c1,4.6-0.1,10.9,2.8,11.5c2.1,0.4,4.3-2.5,2.8-5.8
			c-0.7-1.5-3.8-2.3-4-3C371.5,233.6,389.3,246.6,391,243z"/>
		<path class="st11" d="M188,429.5c0,0.5,0,0.5,0,1c-3.8-0.3-13.5,0.5-13,5.8c0.5,4.8,11.2,5.7,15,6.2c4.3,0.6,8.6-0.1,12.8,1.5
			c1.7,0.1,4.1-0.8,9.8-1c3.1-0.1,7.6,0.9,11-0.5c7.8,1.7,18.8,1.5,27,3c-7,0.1-13.7,0.4-20.8-0.5c-16.7,2.2-33.7,1.2-50.5,0
			c-3.5-2.1-17.5-3-19.2-6.2c-3.5-6.5,6-5.7,8.8-8.2c4.6-0.1,4.6-0.1,9.2-0.2c-5.5-0.4-5.5-0.4-11-0.8
			C173.6,429.9,181.2,429.5,188,429.5z"/>
		<path class="st9" d="M350,445.5c9.3-0.5,28.4-1.8,34.5-7.8c-4.6-6.3-11.9-7-19-7.8c3-2.4,11.7,0.2,15.2,0.5c3.4,0.3,6.1-0.9,10,0
			c2.3,0.5,10.7,5.6,10.2,7.8c-0.8,4.3-17.8,8-21.8,8.2c-6.6,0.4-12-1.7-18,0.5C355.6,444.4,350,448.1,350,445.5z"/>
		<path class="st11" d="M365.5,430c7.1,0.8,14.4,1.4,19,7.8c-6.1,6-25.2,7.3-34.5,7.8c-5.6,0.3-45.9,0.8-48.2,0.5
			c-0.1,0-1.3-0.7-1.2-1c2.5-0.1,5-0.3,7.5-0.5c2.1-0.2,4.4-0.3,6.5-0.5c4,1.6,8.3-0.3,12.2-0.5c0.3,0-0.5,1.1,2,1
			c0.4,0,0.1-1,0.5-1c2.3-0.1,6.1,0.2,9.2,0c5.1-0.3,7.4-1,7.8-1c3.5-0.3,0.9,1.2,3,1c3.9-0.4,7.7-1.8,11.5-2.5
			c0.7-0.1,8.1,0.6,12-2.5c6.9-5.5-6.4-7.4-10.2-8C362.4,429.8,364.2,429.9,365.5,430z"/>
		<path class="st12" d="M362.5,430.5c3.9,0.6,17.2,2.5,10.2,8c-3.9,3.1-11.3,2.4-12,2.5c-3.8,0.7-7.6,2.1-11.5,2.5
			c-2.1,0.2,0.5-1.3-3-1c-0.4,0-2.7,0.7-7.8,1c-0.1-2.1,7.3-1.4,7.8-1.5c2.3-0.5,6.9-3.1,10.5-3.5c-1.2,4.8,5.5-3.6,7.8-3.8
			c2.3-3-10.9-2.6-11.5-2.8c-1.7-0.3-4.3-1.5-4.5-1.5C353.2,429.3,357.8,429.8,362.5,430.5z"/>
		<path class="st13" d="M342,429.5c2.2,0.2,4.3,0.7,6.5,1c0.2,0,2.8,1.2,4.5,1.5c0.9,5.3-2.7,1.9-3.2,5.5c-2.3-3.7-0.6,1-1.5,1.5
			c-0.2,0.1-2.5-0.8-3.8-0.5c4.3-4.6-5.3-7.8-8.8-8.5c-2.4-0.5-5.6,0.9-5.2-1C334.3,429.1,338.2,428.6,342,429.5z"/>
		<path class="st8" d="M384.5,232.5c-7-0.4-7.5,7-11.5,1C376.8,228,373.9,222.9,384.5,232.5z"/>
		<path class="st14" d="M429.8,209c2.3-0.5,1.1,1.9-0.5,1C428.8,209.7,429.6,209,429.8,209z"/>
		<path class="st15" d="M153,245c-0.3,1-0.7,1.1-1.5,0.5C151.5,244.7,152.4,244.4,153,245z"/>
		<path class="st10" d="M330.5,429c-0.4,1.9,2.9,0.5,5.2,1c3.5,0.7,13.1,3.9,8.8,8.5c-12.6,3.2-16.2,4.1-30,5.5
			c-2.1,0.2-4.4,0.3-6.5,0.5c0.8-1.4,10.8-3.6,11.5-5.8c0.1-0.2,0.1-4.3,0-4.5c-0.7-1.6-7.5-3.4-8.5-5.2
			C317.5,429.1,324,428.8,330.5,429z"/>
		<path class="st16" d="M215.5,429c0.3,1.7-1.3,0.7-3,1c-2.8,0.4-3.1,0.5-5.5,2c0.1-1.8-5.9,0-8.5,3.2c1.5,0.3,2.4,1.3,3.5,2.2
			c1.9,1.5,1.4,1.4,1.5,1.5c-6.7,1.3-8.3-2.9-11.8-3.5c-0.5-0.9,8.2-8.6-3.8-4.5c0-0.2,0-0.2,0-0.5c0-0.5,0-0.5,0-1
			C197.2,429.5,206.3,429,215.5,429z"/>
		<path class="st13" d="M212.5,430c-8.4,6.7,5.3,11.2,11,12.5c-3.4,1.4-7.9,0.4-11,0.5c9.4-1.6-2.2-0.2-9-4c-0.1-0.1,0.4,0-1.5-1.5
			c1.1-1.8,3.3-4.4,5-5.5C209.4,430.5,209.7,430.4,212.5,430z"/>
		<path class="st12" d="M203.5,439c6.8,3.8,18.4,2.4,9,4c-5.7,0.2-8,1.1-9.8,1c-4.1-1.6-8.4-0.9-12.8-1.5c-0.8-2.5-6.4-2.3-7-4.8
			c-0.6-2.5,3.4-6.2,5-6.8c12-4.1,3.2,3.6,3.8,4.5C195.2,436.1,196.8,440.3,203.5,439z"/>
		<path class="st12" d="M188,430.5c0,0.2,0,0.2,0,0.5c-1.6,0.6-5.6,4.3-5,6.8c0.6,2.5,6.2,2.3,7,4.8c-3.8-0.6-14.5-1.4-15-6.2
			C174.5,431,184.2,430.2,188,430.5z"/>
		<path class="st12" d="M338.5,443.5c-3.2,0.2-6.9-0.1-9.2,0c-0.4,0-0.1,1-0.5,1c-2.5,0.1-1.7-1-2-1c-3.9,0.2-8.2,2.1-12.2,0.5
			c13.8-1.4,17.4-2.3,30-5.5c1.3-0.3,3.6,0.6,3.8,0.5c0.9-0.5-0.8-5.2,1.5-1.5c0.6-3.6,4.1-0.2,3.2-5.5c0.6,0.1,13.8-0.2,11.5,2.8
			c-2.3,0.2-8.9,8.5-7.8,3.8c-3.6,0.4-8.2,3-10.5,3.5C345.8,442.1,338.4,441.4,338.5,443.5z"/>
		<path class="st13" d="M207,432c-1.7,1.1-3.9,3.7-5,5.5c-1.1-0.9-2-2-3.5-2.2C201.1,432,207.1,430.2,207,432z"/>
	</g>
</g>
<g>
	<g id="Background_00000016757331231824021470000003185386640019108029_" class="st0">
		<path class="st17" d="M449-45.5c0,256,0,256,0,512c-256,0-256,0-512,0c0-256,0-256,0-512C193-45.5,193-45.5,449-45.5z"/>
		<path class="st18" d="M124.8,416c95.2-1.3,190.7,0.1,285.8,5.8c-146.5,5.8-293.2,5.8-439.8-0.2C22.1,419.4,73.3,416.7,124.8,416z"
			/>
		<path class="st19" d="M82.8,208c11.3-2.3,12.1,15.2,1,13.5C76.4,220.4,76.4,209.3,82.8,208z"/>
		<path class="st19" d="M116.2,359.5c9.3-2.3,5.4,12.8-1.5,9C111.6,366.7,113,360.3,116.2,359.5z"/>
		<path class="st19" d="M387.2,64.5c5.6-1.1,5.6,6.7,1.5,7.5C383.9,72.9,383.8,65.2,387.2,64.5z"/>
		<path class="st19" d="M47.8,338.5c6.6-2,5.4,7.4,1,7.5C44.8,346.1,44.7,339.4,47.8,338.5z"/>
		<path class="st19" d="M384.8,213c3.6-0.1,4.2,5.7,1,6.5C381.1,220.6,380.8,213.1,384.8,213z"/>
		<path class="st19" d="M28.8,351.5c3.8-1.2,3.7,6.5-0.5,5C26.5,355.9,27.2,352,28.8,351.5z"/>
		<path class="st19" d="M17.2,272.5c3.5-1.5,4.4,4.6,1.5,5C16.1,277.9,15.6,273.2,17.2,272.5z"/>
		<path class="st19" d="M40.2,312.5c2.1,0,3.3,4.3,1,5C37.8,318.5,36.9,312.5,40.2,312.5z"/>
		<path class="st19" d="M131.2,403c3.8-1.6,4.2,3.8,2,4.5C130.6,408.3,129,403.9,131.2,403z"/>
		<path class="st19" d="M354.8,29.5c4.1-1.4,3,4.6,0.5,4.5C353.3,33.9,352.7,30.2,354.8,29.5z"/>
		<path class="st19" d="M52.2,326.5c1.3-0.5,8.7,6-1.2,3.8C54.4,330.2,49.9,327.4,52.2,326.5z"/>
		<path class="st19" d="M134.8,192c3-1.4,3.4,4.3,1,4.5C133.9,196.6,133.2,192.7,134.8,192z"/>
		<path class="st19" d="M395.2,19.5c2.1-0.5,3.2,3.3,1.5,4C395,24.2,392.6,20.1,395.2,19.5z"/>
		<path class="st20" d="M42.8,372c3.3-1,2.2,3.7,1,4C42.4,376.3,40.2,372.7,42.8,372z"/>
		<path class="st19" d="M296.2,386c2.1-0.9,3.2,2.3,1.5,3C296.3,389.6,294.4,386.8,296.2,386z"/>
		<path class="st19" d="M353.2,270c0.1,0,1.7,1,1.8,1.2C356.1,275,349.6,270.2,353.2,270z"/>
		<path class="st21" d="M47.2,358.5c2.3-0.9,1.5,2.9,0.5,3C47.3,361.6,45.5,359.2,47.2,358.5z"/>
		<path class="st19" d="M115.2,379.5c1.7-0.2,2,2.3,0.5,2.5C114.1,382.2,113.8,379.7,115.2,379.5z"/>
		<path class="st19" d="M371.8,34.5c2.3-0.8,1.5,2.4,0.5,2.5C371.9,37,370.1,35,371.8,34.5z"/>
		<path class="st19" d="M321.8,316c2.1-0.7,1.7,1.9,0.5,2C320.9,318.1,320.6,316.4,321.8,316z"/>
		<path class="st22" d="M77.8,336c2.8-0.8-1.1,0.8-1,4C76.3,338.5,76,336.5,77.8,336z"/>
		<path class="st23" d="M150.2,371c1.9-0.4,1.4,1.8,0.5,2C149.6,373.3,149.1,371.3,150.2,371z"/>
		<path class="st23" d="M61.8,341c2.7,2.1,0.3,3.3-0.2,2.2C61.4,343,61.4,341.4,61.8,341z"/>
		<path class="st24" d="M68.8,333c0.8,1.2-0.2,2.9-1,2.5C66.8,335,68.2,333.4,68.8,333z"/>
		<path class="st25" d="M67.8,329.5c1,0,1.6,2.2,1,2.5C68.6,332.1,66,329.5,67.8,329.5z"/>
		<path class="st19" d="M49.8,317.5c1.5-1,1.5,2,0.5,2C49.1,319.5,49.3,317.8,49.8,317.5z"/>
		<path class="st23" d="M74.8,345.5c1-0.7,1.7,2,0.5,2C74.1,347.5,74.3,345.8,74.8,345.5z"/>
		<path class="st25" d="M17.2,352.5c1.6-0.1,0.4,2.5-0.5,2C16.1,354.1,16.8,352.5,17.2,352.5z"/>
		<path class="st26" d="M57.2,331c2.3,1.2,2.9,2.5,1,2C58,332.9,56.5,331.6,57.2,331z"/>
		<path class="st24" d="M144.8,371c0.4-0.2,1.7,2.7,0.5,2.5C144,373.3,144.4,371.2,144.8,371z"/>
		<path class="st19" d="M122.8,382c1.8-0.4,0.8,2,0,2C122,384,121.7,382.2,122.8,382z"/>
		<path class="st20" d="M34.8,362.5c0.7,0,0.7,2.5,0,2.5S34,362.5,34.8,362.5z"/>
		<path class="st19" d="M151.2,367c0.7,0.3-0.1,1.4-0.5,1.5C147.4,369.6,150.3,366.6,151.2,367z"/>
		<path class="st19" d="M132.2,366.5c1.6-0.8,1.4,1.5,0.5,1.5C131.7,368,131.8,366.7,132.2,366.5z"/>
		<path class="st20" d="M28.2,339.5c0.3,0,1.3,1.1,0.2,1.8C27.4,341.9,27.3,339.5,28.2,339.5z"/>
		<path class="st20" d="M32.2,329c0.3,0,1.3,1.1,0.2,1.8C31.4,331.4,31.3,329,32.2,329z"/>
		<path class="st24" d="M350.2,172.5c0.6-0.1,0.9,0.1,0.8,0.8C350.5,176.2,347.8,172.9,350.2,172.5z"/>
		<path class="st27" d="M53.5,323.5c0.8-0.2,0.8-0.2,1.5-0.5C56.4,323.8,53.8,325.8,53.5,323.5z"/>
		<path class="st19" d="M251.8,371c1.2-0.2,1.5,1.3,0.5,1.5C251.1,372.7,250.8,371.2,251.8,371z"/>
		<path class="st19" d="M44.2,306.5c1.7-0.7,1.4,1.5,0.5,1.5C44.5,308,43.5,306.8,44.2,306.5z"/>
		<path class="st20" d="M18.8,352c1.1,0.1,1.1,0.1,2.2,0.2C20.4,353.3,19.1,353.1,18.8,352z"/>
		<path class="st24" d="M309.8,344c1.5-0.2,0.3,1.9-0.5,1.5C308.6,345.2,309.4,344,309.8,344z"/>
		<path class="st20" d="M22.8,343.5c0.7-0.3,1.1,0.6,0.5,1.5C22.4,346.4,22.2,343.8,22.8,343.5z"/>
		<path class="st20" d="M25.8,373.5c1.7-0.7,1.4,1.5,0.5,1.5C26,375,25,373.8,25.8,373.5z"/>
		<path class="st28" d="M151.8,376.5c2.4-0.8,0,1.7-0.5,1.5C150.6,377.7,151.3,376.6,151.8,376.5z"/>
		<path class="st29" d="M320.2,93c2-1.4,0.6,1.8,0,1.5C319.8,94.3,319.8,93.3,320.2,93z"/>
		<path class="st30" d="M70.2,339c0.9,0.3-0.9,2-1,2C68.4,340.7,70.1,339,70.2,339z"/>
		<path class="st20" d="M6.2,351.5c0.4-0.3,1.6,0,1.2,0.8C7.1,353,5.2,352.3,6.2,351.5z"/>
		<path class="st25" d="M139.2,362.5c1,0,0.3,2,0,2S138.3,362.5,139.2,362.5z"/>
		<path class="st24" d="M46.8,365.5c0.3,0,1,2,0,2S46.4,365.5,46.8,365.5z"/>
		<path class="st30" d="M164.2,384c0.3,0,0.6-0.1,0.8,0.2C165.7,386.2,160.2,384.5,164.2,384z"/>
		<path class="st23" d="M138.2,386.5c2.2,0.1-0.6,1.9-1.2,0.8C137,387.2,138.2,386.5,138.2,386.5z"/>
		<path class="st22" d="M32.2,334.5c0.2-0.1,1.1-0.1,1.2,0.2C33.9,335.6,30.6,335.6,32.2,334.5z"/>
		<path class="st24" d="M20.8,369c0.3-0.1,1.7-0.1,1.8,0.2C22.6,370,18.7,369.7,20.8,369z"/>
		<path class="st26" d="M55,323c-0.8,0.2-0.8,0.2-1.5,0.5C53.4,322.6,54.3,322.6,55,323z"/>
		<path class="st22" d="M123.8,373.5c0.8,0.1-0.5,2-0.8,1.2C122.8,374.2,123.7,373.5,123.8,373.5z"/>
		<path class="st27" d="M154.2,390.5c0.7-0.3,1.1,0.8,0.5,1C154,391.8,153.7,390.7,154.2,390.5z"/>
		<path class="st27" d="M41.8,347c0.3-0.1,1.8,0,1.8,0.2C43.5,347.8,40.8,347.5,41.8,347z"/>
		<path class="st23" d="M52.5,353.5c-0.4,1.3-1.6,1.4-0.5-0.5C52.2,353.2,52.2,353.2,52.5,353.5z"/>
		<path class="st31" d="M319.8,100.5c0.4,0,0.4,1.5,0,1.5S319.4,100.5,319.8,100.5z"/>
		<path class="st25" d="M369.8,27c0.2,0,0.2,0,0.5,0c0.1,0.1,0.1,0.1,0.2,0.2c-0.1,0.1-0.1,0.1-0.2,0.2s-0.1,0.1-0.2,0.2
			s-0.1,0.1-0.2,0.2c-0.1-0.1-0.1-0.1-0.2-0.2c0-0.2,0-0.2,0-0.5C369.6,27.1,369.6,27.1,369.8,27z"/>
		<path class="st26" d="M323.8,223c0.2,0,0.2,0,0.5,0c0.1,0.1,0.1,0.1,0.2,0.2c0,0.2,0,0.2,0,0.5c-0.1,0.1-0.1,0.1-0.2,0.2
			c-0.1-0.1-0.1-0.1-0.2-0.2s-0.1-0.1-0.2-0.2s-0.1-0.1-0.2-0.2C323.6,223.1,323.6,223.1,323.8,223z"/>
		<path class="st32" d="M49.8,370c0.4,0,0.4,1.5,0,1.5S49.4,370,49.8,370z"/>
		<path class="st33" d="M68.2,345c0.4,0,0.4,1.5,0,1.5S67.9,345,68.2,345z"/>
		<path class="st20" d="M314.2,233c0.4,0,0.4,1.5,0,1.5S313.9,233,314.2,233z"/>
		<path class="st30" d="M97.2,371.5c0.1,0.1,0.1,0.1,0.2,0.2c0,0.2,0,0.2,0,0.5c-0.1,0.1-0.1,0.1-0.2,0.2c-0.2,0-0.2,0-0.5,0
			c-0.1-0.1-0.1-0.1-0.2-0.2c0.1-0.1,0.1-0.1,0.2-0.2s0.1-0.1,0.2-0.2S97.1,371.6,97.2,371.5z"/>
		<path class="st27" d="M157.8,381.5c0.1,0.1,0.1,0.1,0.2,0.2s0.1,0.1,0.2,0.2s0.1,0.1,0.2,0.2c-0.1,0.1-0.1,0.1-0.2,0.2
			c-0.2,0-0.2,0-0.5,0c-0.1-0.1-0.1-0.1-0.2-0.2c0-0.2,0-0.2,0-0.5C157.6,381.6,157.6,381.6,157.8,381.5z"/>
		<path class="st22" d="M46.2,325.5c0.1,0.1,0.1,0.1,0.2,0.2c0,0.2,0,0.2,0,0.5c-0.1,0.1-0.1,0.1-0.2,0.2c-0.2,0-0.2,0-0.5,0
			c-0.1-0.1-0.1-0.1-0.2-0.2c0.1-0.1,0.1-0.1,0.2-0.2s0.1-0.1,0.2-0.2S46.1,325.6,46.2,325.5z"/>
		<path class="st33" d="M153.2,384.5c0.1,0.1,0.1,0.1,0.2,0.2s0.1,0.1,0.2,0.2s0.1,0.1,0.2,0.2c-0.1,0.1-0.1,0.1-0.2,0.2
			c-0.2,0-0.2,0-0.5,0c-0.1-0.1-0.1-0.1-0.2-0.2c0-0.2,0-0.2,0-0.5C153.1,384.6,153.1,384.6,153.2,384.5z"/>
		<path class="st26" d="M52.5,353.5c-0.2-0.2-0.2-0.2-0.5-0.5C52.9,351.4,53,351.8,52.5,353.5z"/>
		<path class="st27" d="M155.8,367.5c0.1,0.1,0.1,0.1,0.2,0.2c0,0.2,0,0.2,0,0.5c-0.1,0.1-0.1,0.1-0.2,0.2c-0.2,0-0.2,0-0.5,0
			c-0.1-0.1-0.1-0.1-0.2-0.2c0.1-0.1,0.1-0.1,0.2-0.2s0.1-0.1,0.2-0.2S155.6,367.6,155.8,367.5z"/>
		<path class="st27" d="M13.8,339c0.2,0,0.2,0,0.5,0c0.1,0.1,0.1,0.1,0.2,0.2c-0.1,0.1-0.1,0.1-0.2,0.2s-0.1,0.1-0.2,0.2
			s-0.1,0.1-0.2,0.2c-0.1-0.1-0.1-0.1-0.2-0.2c0-0.2,0-0.2,0-0.5C13.6,339.1,13.6,339.1,13.8,339z"/>
	</g>
	<g>
		<path class="st34" d="M8.2,361.5c1.1-0.2,2.5,0,3.5,0.5c5.5,2.4-1,6.9-4,6C5.2,367.2,4.6,362.3,8.2,361.5z"/>
		<g>
			<path class="st34" d="M74.2,168c15.3-1.8,15.2,18.9,3.5,20C64.9,189.3,59.9,169.7,74.2,168z"/>
			<g>
				<path class="st34" d="M80.5,144c5.5,4,5.9,11.3,2.5,16.8c-7.1,11.4-25.1,2.4-20.5-11.8C68.7,143.7,72.2,141.4,80.5,144z"/>
				<path class="st35" d="M80.5,144c-8.3-2.6-11.8-0.3-18,5C65,141.2,74.3,139.5,80.5,144z"/>
			</g>
		</g>
		<path class="st34" d="M139.8,196.5c4.2-0.3,3.8,7.6-1,6C136,201.6,137.2,196.7,139.8,196.5z"/>
		<g>
			<path class="st34" d="M338.8,72c-1.4,5.9-1.4,5.9-2.8,11.8c11,2.2,4.8,17.4-0.2,1.8c-2.6,6.9-2.6,6.9-5.2,13.8
				c1.4,2.7,5.1,2.4,7.5,10c-7.1,5-9.6,14.4-16.2,13.8c-5.3,7.5-4.2,0.5-3.2-6.8c0.4-2.9,5.4-27.6,6-29c1.1-2.6,2,0.8,2,1
				c-0.1,0.6-1.5,0.8-1.5,1c-0.5,4.9,0.3,10.1-1,15C332.1,100,334.3,80.4,338.8,72z"/>
			<path class="st34" d="M27.2,379c1.1,1.5-1.6,2.6-1.8,3.2c3.3,7.1-10.2,10.7-9,2C17.4,377.5,25,384.1,27.2,379z"/>
			<path class="st36" d="M267.5,315c-2,1.8-7.7,10.8-14,10.5c3.2-5.2,7.6-9.7,12-14C269.6,311.5,264.7,313.6,267.5,315z"/>
			<path class="st37" d="M329,308.5c-0.8-1-0.8-1-1.5-2c0.1,0-0.5-0.5,1.2-1.5c0.8-0.4,0.8,1.1,1,1c10.4-6.1,19.4-15,29.8-21.2
				C351.6,292.2,338,302.7,329,308.5z"/>
			<path class="st34" d="M265.5,311.5c-4.4,4.3-8.8,8.8-12,14c-0.6,0-3.6-1.5-3.5-1.8c0.9-0.8,1.7,0.5,3,0.2
				c0.9-0.2,4.5-7.4,11.8-14c7.6-6.8,26.2-17.4,7.5-5C269.7,306.9,267.7,309.3,265.5,311.5z"/>
			<path class="st38" d="M332,139.5c-0.3-0.4-1.2,0.7-1.5,0.2c-5.7-10.2,9.2-10.5,1-2C331.2,138.8,332,139.1,332,139.5z"/>
			<path class="st34" d="M339.8,106.5c2.7-1.2,4.6,5,1.5,5.5C338.7,112.4,338.3,107.2,339.8,106.5z"/>
			<path class="st37" d="M360.2,277c4.1-0.2-5.7,4.1-9.8,5.2C350,281.2,359.7,277,360.2,277z"/>
			<path class="st39" d="M355.8,67c-1.5,7-1.5,7-3,14C352.7,76.3,353.9,71.3,355.8,67z"/>
			<path class="st37" d="M314.8,114c4.5,0.6-3.9,9.9-1.2,1.2C313.5,115.2,314.7,114,314.8,114z"/>
			<path class="st34" d="M326.8,130.5c0.9-0.1,2.8,4.9,0,4C325.3,134,325.5,130.7,326.8,130.5z"/>
			<path class="st34" d="M348.8,118c2.2-0.9,2,3,0.5,3C347.7,121,347.6,118.5,348.8,118z"/>
			<g>
				<path class="st40" d="M324,204.5c-0.4,1.7-1.5,1.9-1.5,2C318.7,202.8,324.8,200.8,324,204.5z"/>
				<path class="st37" d="M320.2,212.5c0.2,0-0.1,2.4-0.2,2.8C318.5,220.4,314.9,222.2,320.2,212.5z"/>
			</g>
			<g>
				<path class="st34" d="M40.5,184c2.8-2,2.8-2,5.5-4c17.5-2.2,11.5,21.5,0.8,19C45.8,198.8,37,191.6,40.5,184z"/>
				<path class="st41" d="M46,180c-2.8,2-2.8,2-5.5,4C41.7,181.5,43.2,180.4,46,180z"/>
			</g>
			<path class="st40" d="M358.2,95c0.8,0.8-0.4,1.2-0.8,1.8c-3,5.4-4.7,3.8,0.5-1.5C358.1,95.1,358.1,95.1,358.2,95z"/>
			<path class="st38" d="M332,139.5c0,0.2,0.8,3.9-0.8,4C330.1,141.4,332.5,140.1,332,139.5z"/>
			<path class="st42" d="M347.8,105c1.1,0-0.6,6.5-0.8,2.8C347,107.6,347.6,105,347.8,105z"/>
			<path class="st40" d="M301.8,291.5c0.8-0.4,2.3,0.1,1.8,1.2C303,293.8,300.6,292.1,301.8,291.5z"/>
			<path class="st40" d="M329.2,141.5c0.5,0.3,0.5,3.4-0.5,2C328,142.4,329.1,141.4,329.2,141.5z"/>
			<path class="st38" d="M342.8,137c0.5,0.3,0.4,2.4-0.5,2C341.4,138.6,342.5,136.9,342.8,137z"/>
			<path class="st43" d="M318.2,127.5c0.4,0,0.4,3,0,3S317.9,127.5,318.2,127.5z"/>
			<path class="st44" d="M296.8,290.5c0.4,0,0.4,2.5,0,2.5S296.4,290.5,296.8,290.5z"/>
			<path class="st45" d="M331.8,122c0.1,0,1,0.8,0.8,1.2C331.8,124.4,330.9,122.4,331.8,122z"/>
			<path class="st46" d="M331.8,127c0.5-0.3,1,0.1,0.5,1C331.6,129.2,331.1,127.4,331.8,127z"/>
			<path class="st47" d="M320.8,155.5c0.1,0,0.8,0.5,0.5,1C320.5,157.7,320.1,156,320.8,155.5z"/>
			<path class="st48" d="M309.2,283.5c0.7-0.3,1.1,0.8,0.5,1C309,284.8,308.7,283.7,309.2,283.5z"/>
			<path class="st49" d="M315.8,110.5c0.4,0,0.4,1.5,0,1.5S315.4,110.5,315.8,110.5z"/>
			<path class="st46" d="M338.2,132.5c0.4,0,0.4,1.5,0,1.5S337.9,132.5,338.2,132.5z"/>
			<path class="st45" d="M268.2,303c0.1,0.1,0.1,0.1,0.2,0.2c0,0.2,0,0.2,0,0.5c-0.1,0.1-0.1,0.1-0.2,0.2c-0.2,0-0.2,0-0.5,0
				c-0.1-0.1-0.1-0.1-0.2-0.2c0.1-0.1,0.1-0.1,0.2-0.2s0.1-0.1,0.2-0.2S268.1,303.1,268.2,303z"/>
			<g>
				<path class="st34" d="M327.5,306.5c0.8,1,0.8,1,1.5,2c-14.6,9.5-15.2,7.8-25,12c-0.8-0.5-0.8-0.5-1.5-1
					C307,317.5,322.4,309.4,327.5,306.5z"/>
				<g>
					<path class="st34" d="M96.5,252c2.6,4.6,6.1,5,6.8,11c0.5-15.7,15.9,1.9,2.2,2.8c9.1,24.4,30.6,49.7,57,55.2
						c0.1,2.3,4.8,0.3,8.5,3.8c-4.3,0.1-6.6-1.7-7-1.8c-6.3-1.2,1.3,3.7,2,4.8c0.3,0.4,1.3,5.3,4.5,9.5c0.7,1.5,1.7-0.3,1.8-0.2
						c3.9,3.4,14,18.9,31.5,29c8.5,4.9,17.5,6.4,21.8,10.5c-5.8,1.1-20.2,1.8-26.2,1.5c-28-1.5-44.1-15.7-52-18
						c-6.1-1.7-18.2-1.7-24.5-3.5c-13.2-3.8-18.4-15.1-42.5-1c-18.2,10.6-4.1,9.5-4.8,11.2c-2.9-0.9-2.9-0.9-5.8-1.8
						c-7.7,17.8-14.6,14.5-25,16.5c-6.5,1.2-6.4,5.4-14.5,0c0.2-0.5,0.2-0.5,0.5-1c6.4,3.6,18.6-0.2,25.5-2.5
						c0.8-0.9-6.8-3.6-5.2-12.2c1.9-11.2,13.8-2.7,20.2-4.8c1.4-0.5,7.3-5.4,8.2-6.8c4.3-6.5,2.5-19-0.5-26
						c-9.2-21.8-31.8-22.9-43.5-52.5c-16.6-41.9,9.2-35.9,12-64c0.2-2.3-0.3-16.2,1-6c1.2,9.5-4.8,17-1,19c-5.6,0.6-2.8,6.6,0.8,7.2
						c11,2,24.5-17.6,27-11c-4.3-1.8-15.1,8.9-14.8,9.8c19,3,17.1,15.7,24.8,18.8C88.5,250.8,93.7,249.4,96.5,252z"/>
					<path class="st50" d="M148.2,325.5c0.3,0,0.7-0.1,0.8,0.2C149.4,327.2,146,325.8,148.2,325.5z"/>
				</g>
				<g>
					<path class="st34" d="M302.5,319.5c0.8,0.5,0.8,0.5,1.5,1c-6.7,2.9-14.9,4.9-19.5,11.2c-1.3,8.7-12,18.5-19.2,23.8
						c-7.1,5.1-32,19.5-39.8,21c-4.3-4.1-13.3-5.6-21.8-10.5c-17.5-10.1-27.6-25.6-31.5-29c-0.1-0.1-1.1,1.8-1.8,0.2
						c-3.2-4.2-4.2-9.1-4.5-9.5c-0.7-1.1-8.3-5.9-2-4.8c-1.3,2.7,2.7,0.7,2.8,3.5c8.2-1.2,11.4,6.6,12.8,0.5
						c1.3,0.4,1.9,0.4,2.5,0.5c12.9,3.2,19.8,1.9,9.2,0.5c3.5-0.2,3.5-0.2,7-0.5c-2.7,3.2,1.8,0.8,3,1c2.8,0.5-4.2,2.4-10.8,2.2
						c10.1,1.7,19.5-2.2,28.8-5.2c0.8-0.3-0.8,2.8,9.8-3.5c-1.4,2.9,2.3-0.9,2.5-1c1.8-1.2,4.8-2.1,5-4.5c0.1-0.1,0.6,0.1,0.5-0.5
						c1.8-0.7,2.6-0.4,2.8-0.5c1.5-0.8,16.4-15,17.8-18.5c0.6-0.5,3.7-4.9,4.8-4c1.4,5.3-4.6,7.1,1.8,8c-2.5,6.6-10.4,23.4-8.8,16
						c-0.4-0.1-2.3,6.1-2.2,7c-1.3,0.3-2.1-1-3-0.2c-0.1,0.2,2.9,1.7,3.5,1.8c6.3,0.3,12-8.7,14-10.5c3.4-2.9,5.4-2.8,7-4.2
						c6.5-8.6,12.7-17.4,21.2-24.2c3.5-2.8,23-15.8,24-9c-2.4-3.7-22,8.4-24.5,10.5c-7,5.9-15.2,21.1-23.2,28.2
						c0.4,0.4,0.4,0.4,0.8,0.8c2.7-1.7,6.8-0.6,8-1c0.8-0.2,11.1-8.7,12-10.5c0.4,0.4,0.4,0.4,0.8,0.8c-7.9,11.9,2.2-0.5,11.8-7.8
						c8-6.1,16.8-10.4,24.5-18c-5.8,6.2-11.6,12.4-18,18c-6.9,6-33.8,23.5-26.5,27C286.2,325.9,300.4,320.4,302.5,319.5z"/>
					<g>
						<path class="st37" d="M219.2,335c1-0.6,2.8,2.2,1,2.5C220,337.5,218.2,335.6,219.2,335z"/>
						<path class="st51" d="M201.8,334.5c5.4,0.4-1.2,3.1-1.2,0.8C200.5,335.2,201.7,334.5,201.8,334.5z"/>
						<path class="st52" d="M207.2,341c0.8,1.2,0.8,1.2,1.5,2.5C207.6,343.3,206.5,342,207.2,341z"/>
						<path class="st51" d="M227.8,333c0.5,0,2,1.3,1,2C228,335.5,226.2,333,227.8,333z"/>
						<path class="st53" d="M243.2,322.5c1.7-1.1,0.9,3.4-0.2,1.2C242.9,323.5,242.9,322.7,243.2,322.5z"/>
						<path class="st37" d="M178.2,333c0.2,0,1.4,1.9,1.2,2.2C178.8,336.6,177.7,333.1,178.2,333z"/>
						<path class="st54" d="M247.2,318.5c0.1,0,1.2,0.7,1.2,0.8C248.9,320.8,245,318.7,247.2,318.5z"/>
						<path class="st52" d="M235.8,330c0.2,0,1.1,0.7,0.2,1.2C235,331.8,234.9,330,235.8,330z"/>
						<path class="st46" d="M234.8,336.5c0.8-0.2,1.3-0.1,1.2,0.8C236,337.7,234,336.7,234.8,336.5z"/>
						<path class="st53" d="M237.2,320.5c0.1,0.1,0.1,0.1,0.2,0.2s0.1,0.1,0.2,0.2s0.1,0.1,0.2,0.2c-0.1,0.1-0.1,0.1-0.2,0.2
							c-0.2,0-0.2,0-0.5,0c-0.1-0.1-0.1-0.1-0.2-0.2c0-0.2,0-0.2,0-0.5C237.1,320.6,237.1,320.6,237.2,320.5z"/>
					</g>
				</g>
			</g>
			<g>
				<g>
					<g>
						<path class="st55" d="M151.5,224.5c-1.1,3.6,2.9,4.3,3,0.5c0.5,0.1,0.5,0.1,1,0.2c5.6,10.4,19.9,47.5,33.5,47.2
							c0,1.7-6.2,5-7.8,5.5c-29.3,10.6-41.7-33-49.2-53C135.3,224.7,149.1,224.2,151.5,224.5z"/>
						<path class="st37" d="M154.5,225c-0.1,3.8-4.1,3.1-3-0.5C152.6,224.6,153.5,224.2,154.5,225z"/>
					</g>
					<g>
						<path class="st55" d="M247.5,36.5c-0.5-0.2-1.4,0.3-1.5,0.8c-1.8,6.3,1,114,1,130.5c0.8-14.8-10.7-13.9-14-9
							c-5.5,8.3,5.8,20.7,13.5,10c-0.1,11.9-0.5,23.8-0.5,35.8c-0.1,13.7,0.4,27.3-0.5,41c-0.2,3.8-0.5,7.2-1,11
							c-3.5,24.3-13,33.2-12.5,35c-19.3,24-37,36.3-69.5,29.5c-26.4-5.5-47.9-30.8-57-55.2c13.6-0.8-1.7-18.5-2.2-2.8
							c-0.7-6-4.1-6.4-6.8-11c-2.6-4.5-4.9-15.6-8-20.8c0.4-1.4,3.8-0.5,5.5-0.8c0,1.6,0.3,10.5,2.8,9.5c1.1-0.4,1.2-9.3-0.2-10
							c9-1.3,29.6-4.5,35.5-5c7.6,20,19.9,63.6,49.2,53c1.5-0.5,7.8-3.8,7.8-5.5c9-0.2,14.5-19,14.5-26.2c0.2-101,0.2-101,0.5-202
							c5.7-1.2,38.7-9.8,40.8-9.8C246.7,34.6,246.4,35.6,247.5,36.5z"/>
						<g>
							<path class="st56" d="M245.5,245.5c0.9-13.7,0.4-27.3,0.5-41c0.2,6.9,1.4,37,0.5,40.8C246.4,245.6,245.8,245.5,245.5,245.5z"
								/>
							<g>
								<path class="st57" d="M96.5,230c1.5,0.7,1.3,9.6,0.2,10c-2.5,1-2.8-7.9-2.8-9.5C94.9,230.4,95.6,230.1,96.5,230z"/>
								<path class="st34" d="M110.2,240c9.5-1.9,10.9,14.2,3,15.5C102.6,257.3,102.3,241.6,110.2,240z"/>
								<path class="st34" d="M102.8,234c6.8-1.3,6.2,10.5-0.5,7C99.6,239.6,99.4,234.7,102.8,234z"/>
								<path class="st34" d="M130.2,283c3.7-1.6,7.3,5.3,3.5,6.5C129.6,290.8,127.9,284,130.2,283z"/>
								<path class="st37" d="M125.8,267c2.8-1.3,5.3,3.8,2.5,4.5C126.1,272,123.4,268.1,125.8,267z"/>
								<path class="st34" d="M132.2,268.5c2.8-1.4,4.3,3.1,2,4C130.6,273.8,130.9,269.1,132.2,268.5z"/>
								<path class="st34" d="M217.8,188c1.4,0.5,1,4.5-1,4.5C213.7,192.5,215.1,187,217.8,188z"/>
								<path class="st34" d="M122.8,274.5c1,0.1,2.4,3.4,1,4C121.3,279.5,120.1,274.2,122.8,274.5z"/>
								<path class="st34" d="M226.8,243c2.5-1.2,2.9,3.1,1,3.5C225.5,246.9,225.5,243.6,226.8,243z"/>
								<path class="st34" d="M226.8,113c0.9-0.2,2.9,2.8,1,3.5C226.2,117,225.5,113.3,226.8,113z"/>
								<path class="st34" d="M157.2,298.5c1.6-1,1.6,2.5,0.5,2.5C157.1,301,156.6,298.9,157.2,298.5z"/>
								<path class="st34" d="M229.2,176.5c0.1,0,1.8,1.6,1.8,1.8C231,180.3,227.2,176.5,229.2,176.5z"/>
								<path class="st57" d="M226.2,180c0.1,0,1.3,1.2,1.2,1.2C227.5,183.1,224,180.3,226.2,180z"/>
								<path class="st58" d="M122.8,281.5c0.6-0.4,2.1,0.5,1.8,1.2C124.2,283.4,121.7,282.1,122.8,281.5z"/>
								<path class="st59" d="M242.2,177c0.3-0.1,1.3,1.6,0.5,2C241.8,179.4,241.7,177.3,242.2,177z"/>
								<path class="st34" d="M220.8,248c1.1-0.5,1.1,2,0,1.5C220.3,249.3,220.3,248.2,220.8,248z"/>
								<path class="st58" d="M148.8,312c0.3,0.2,0.4,1.1,0.2,1.2C147.6,315.3,147.5,311.3,148.8,312z"/>
								<path class="st34" d="M224.8,193c0.3,0,1.2,1.2,0.5,1.5C224.2,195,223.8,192.9,224.8,193z"/>
								<path class="st46" d="M200.2,315.5c1-0.3,1,1.3,0.5,1.5C200.6,317.1,199.5,315.7,200.2,315.5z"/>
								<path class="st50" d="M221.2,177.5c0.6,0.5,0.3,2.2-0.5,1C220.4,178,221.2,177.5,221.2,177.5z"/>
								<path class="st50" d="M137.2,303c0.7-0.3,1.1,0.8,0.5,1C137,304.3,136.7,303.2,137.2,303z"/>
								<path class="st60" d="M169.8,316.5c0.1,0,0.8,0.5,0.5,1C169.5,318.7,169.1,317,169.8,316.5z"/>
								<path class="st46" d="M214.2,152.5c0.1,0.1,0.1,0.1,0.2,0.2s0.1,0.1,0.2,0.2s0.1,0.1,0.2,0.2c-0.1,0.1-0.1,0.1-0.2,0.2
									c-0.2,0-0.2,0-0.5,0c-0.1-0.1-0.1-0.1-0.2-0.2c0-0.2,0-0.2,0-0.5C214.1,152.6,214.1,152.6,214.2,152.5z"/>
								<path class="st58" d="M238.2,183.5c0.1,0.1,0.1,0.1,0.2,0.2c0,0.2,0,0.2,0,0.5c-0.1,0.1-0.1,0.1-0.2,0.2c-0.2,0-0.2,0-0.5,0
									c-0.1-0.1-0.1-0.1-0.2-0.2c0.1-0.1,0.1-0.1,0.2-0.2s0.1-0.1,0.2-0.2S238.1,183.6,238.2,183.5z"/>
								<path class="st46" d="M112.8,268c0.4,0,0.4,1.5,0,1.5S112.4,268,112.8,268z"/>
							</g>
						</g>
					</g>
				</g>
				<g>
					<g>
						<path class="st34" d="M322.5,206.5c0-0.1,1.1-0.3,1.5-2c2.7-12-7.9-4.8-12,13.8c3.8-0.3,5,3.3,8,5c-7.2-1.5-11.3,11.1-16,16.5
							c11.8,3.3,23.8,0.4,32-9c1-1.6,1.7-4.9,2.5-6c9.2-13,18-26.5,28.5-38.5c-2.3,7.3-8.3,11.9-12.5,18c-1.6,2.3-12.5,17.9-12.5,19
							c-0.1,2.7,5.2-0.5,4,4c-1,3.7-7.9,0.2-13,15c-1.4,4-2.8,15.6-6,21.5c-8.5,15.7-50.2,23.1-63,37.2c-6.4-0.9-0.4-2.7-1.8-8
							c-1-0.9-4.1,3.5-4.8,4c-3.8,3.3-7,7.4-11,10.5c7.3-7.6,14.7-15.4,21-23.8c1.2-8.4,5.3-15.8,6.5-24.2c0.1-0.1,1.1-0.3,0.2-2.5
							c-0.5,0.6-0.1,1.7-0.2,2.5c-0.1,0.1-0.7,1.7-1,1.2c1-5.7,0.7-11.5,1-17.2c2.4-11.1,2.1,12.7,0,22.8c-0.4,1.6-4.6,10-3,9.8
							c-5.7,10.7,4.1-2.9,4-6.5c0-0.1,1.1-0.1,0.2-2c-0.1,1-0.1,1-0.2,2c-0.8,1.9-3.1,4.9-4,6.5c8-16.1,4.1-34.4,5-51.8
							c-0.8,0.8-0.8,0.8-1.5,1.5c-0.1-1.1,0.1-2.2,0-3.2c0-0.2-0.3-0.6-0.5-3c-0.5-8.1,0-16.2,0-24.2c-0.5,0-0.5,0-1,0
							c1.1,21.6-1.2,20.7-0.5-0.5c-0.5,4.2-0.5,4.2-1,8.5c1.2-6.4-3-8.6-1-14c-0.5,0-0.5,0-1,0c-0.9,3.1,2.9,20.7,1.8,21.8
							c-0.5,0.5-0.7-1.3-1.8,0.5c-0.8,1.4-0.4,2.1-0.5,3.5c-0.2,0-0.2,0-0.5,0c-0.2-2.5-0.1-4,0-6.5c0.1-2.3,1-4.8,0.5-7.2
							c0.5-0.2,0.5-0.2,1-0.5c-4.1-0.7-3.2-9.2-4-3.8c-0.2,0-0.2,0-0.5,0c0.2-5.4-0.4-16.1-0.5-4.2c-0.5,0-0.5,0-1,0
							c0.3-3-0.5-2.6-0.5-2.8c-0.1-1.1,0.3-2.5-0.2-3.5c-0.9,3.2,0.2,3.3,0.2,3.5c0.1,1.9,0.2,3.7,0.5,5.5c-1.4,3.6-1-4.9-2.8-4.5
							c-4.1,4.9,0.7,4.2-0.2,9.8c-0.9,1.9-3.4-2.9-3.5-3.2c-1.7-3.7-1.5,3.2,0,3c0,0.3,0,0.7,0,1c-0.2,3.6-0.2,3.6-0.5,7.2
							c0.5-1.2,0.5-1.2,1-2.5c-1,2.3,3,14.3,0,11c0.9,14.4,2.9,40.2-1,52.5c2.5-16.1,1.4-20.6-0.5-1c-2.5,2.5,0.3-4.2,0.5-10
							c0.3-8.4-0.9-7.7-1,1.5c-0.5-1.6-0.5-1.6-1-3.2c0.6-14.7-0.1-4.9-1,2.5c-1.6,4.4-1.9,9.1-3.5,13.5c1.5-7.9,1.5-7.9,3-15.8
							c0.5-21.1-0.6,5.3-2,5.2c1.3-9.9,0.3-23.7,0.2-34c-1,3.5,1.3,7.3-2,8c-0.1-4.2-2.3,4.2-0.8,3.2c0.7,8.2-1.4,14.7-2,22.5
							c-0.5,0-0.5,0-1,0c1.5-11.8-1.2-0.9-1.5,4c-2.7,0.7,1.9-7,0-9.8c0.5-3.8,0.8-7.2,1-11c0.3,0,0.9,0.1,1-0.2
							c0.9-3.8-0.3-33.9-0.5-40.8c0-11.9,0.4-23.8,0.5-35.8c-7.7,10.7-19-1.7-13.5-10c3.3-4.9,14.8-5.8,14,9
							c0-16.5-2.8-124.2-1-130.5c0.1-0.4,1-0.9,1.5-0.8c0.2,0.2,0.3,0.3,0.5,0.5c0.6,0.6,0.8,1.7,2,1.5c0.3,0.3,0.6,0.6,1,1
							c0.5,0.5,0.5,1.3,1.5,1c0.6,0.5,1,0.9,1.5,1.5c0.6,0.6,0.8,1.7,2,1.5c0.2,0.2,0.9,0.9,1,1c1.7,1.4,1.9,1.4,2,1.5
							c0.5,0.7,0.5,2,2.5,2c0.2,0.2,0.3,0.3,0.5,0.5c0.6,0.6,0.8,1.7,2,1.5c0.4,0.4,0.7,0.7,1,1c1.3,2.7,2.3,1.9,2.5,2
							c1.3,1.1,1.5,1.4,3,2.5c0.6,2.2,1.8,1.4,2,1.5c0.1,0.1,0.3,1.2,1.5,1c0.6,0.4,0.6,0.5,1,1c0.5,0.5,0.5,1.3,1.5,1
							c0.4,0.4,0.6,0.6,1,1c0.5,0.5,0.5,1.3,1.5,1c0.4,0.4,0.6,0.6,1,1c0.5,0.5,0.5,1.3,1.5,1c7,5,4.5,3.8,4.5,20
							c-0.2,8.6-0.2,8.6-0.5,17.2c0.4-4.3,1-9,1-13.2c2.2-0.9,4.8-1.7,6.8-3c5.3-3.6,21.9-27.2,29.2-34.2c1.6-19.3-4.7-9-6.2-8.8
							c-1.3,0.2-4.3-2.6-5.5-2c-6.4,12.4-15.5-8.8,1.5-2.5c1.1-0.8-4.7-14.8,6-13c6.4,1.1,2.5,10,4.5,14c3.7-3.9-0.2-6.6,0.2-7.2
							c15.3,0.9,6.5-20.2,16.8-21.8c11.4-1.7,12.2,18-0.8,18.2c-6,30.4-24,24.7-21,66c-1.1,2.9-4.7,4.5-5.5,7.5
							c-1,3.6,0.3,18.7,1,23.5c0.1,0.5,1.8,3,2,4c0.5,2.9-2.9,11.9,3.5,9c2.3-15.2,0,1.4,0.5,3c0,0.1,1.2,1.2,1.2,1.2
							c2.7,0.6,0.3-4.4,1.5-5c3.7,16.8-4.1,14.4-5.8,16.2c-0.4,0.4-3.5,9.5-3,10.5c0.3,0.6,6.2-2.5,4.2,9.8
							c4.7-2.1,5.7-17.6,9.5-16.5c0.2,0.1,2.7,3.5,2.8,3.8c0.8,4-5.9,13.7-1.2,12.8c3-0.6,1.8-10.4,2.8-12.2c0.9-1.7,4.5-1.6,5.5-4
							c-6.2-7.2,10.6-27.3,20.5-24.5c2.2-3.2,14.9-24.3,16.8-24.8c2.3-0.5,3.3,2.5,3.2,2.8c-0.4,2.6-1.4-1.3-6,3.5
							c-0.8,0.8-13.2,18.4-13,19.5c19.3,8.2,9,31.5,0.2,34.2c-9.4,2.9-10.6-7.2-15.8,9.2c-2.6-1.1-10,7.3-10,8c0,0.6,4,1.7,2.5,7.5
							c-1.3,5.3-13,3.2-7,11.5c-3.3,0.9-4.2,5.4-6.2,8.2c-0.4-0.1-0.4-0.1-0.8-0.2C322.4,210.8,322,208.2,322.5,206.5z"/>
						<g>
							<path class="st61" d="M314.5,171.5c0.2,0,0.2,0,0.5,0c-2.6,7.4-8.8,9.9-11.5,14.8c-0.2,0.3,2.4,3.9-3.8,5.2
								c-0.4-3,9.8-22.1,11.5-21.5C312.4,170.4,310.3,173.8,314.5,171.5z"/>
							<path class="st62" d="M287.2,154c0.5-0.4,9.4,4.9,0.8,7.2c3,0.4,4,13.5,0,12C288.7,170.9,286.5,154.6,287.2,154z"/>
							<path class="st44" d="M291,193.5c-0.3,1.4-0.1,1.8-2,2c1.4-4.8,1.4-4.8,2.8-9.5C292.2,186.1,291.2,192.9,291,193.5z"/>
							<path class="st36" d="M289,195.5c1.9-0.2,1.7-0.6,2-2C294.9,194.4,289.3,197.5,289,195.5z"/>
							<g>
								<path class="st63" d="M315.2,199c0.4,0.1,0.4,0.1,0.8,0.2C307.7,218.9,306.4,217.9,315.2,199z"/>
								<path class="st36" d="M307.8,171c0.3-0.1,1.1-0.1,1.2,0.2C299.1,179.6,304.8,171.6,307.8,171z"/>
								<path class="st64" d="M326.8,190c2.2-0.5,0.2,3.1-0.5,3C325.4,192.9,325.7,190.2,326.8,190z"/>
							</g>
							<path class="st65" d="M289.8,184.5c1.7,0.5-3.9,7-0.2,0.2C289.6,184.6,289.7,184.5,289.8,184.5z"/>
							<path class="st56" d="M315,171.5c-0.2,0-0.2,0-0.5,0c0.1,0,0.8-1.3,1.2-1.5C316.6,170.9,315,171.4,315,171.5z"/>
							<g>
								<path class="st57" d="M286.5,88c0,4.3-0.6,9-1,13.2c0.2-8.6,0.2-8.6,0.5-17.2C286,87.4,286.5,87.8,286.5,88z"/>
								<path class="st54" d="M270.5,55.5c-1.5-1.1-1.7-1.4-3-2.5C267.7,53.1,268.9,52.9,270.5,55.5z"/>
								<path class="st54" d="M261.5,48c-2,0-2-1.3-2.5-2C259.8,46.7,260.6,47.2,261.5,48z"/>
								<path class="st54" d="M267.5,53c-0.2-0.1-1.2,0.7-2.5-2C265.1,51.1,266.3,52,267.5,53z"/>
								<path class="st54" d="M272.5,57c-0.2-0.1-1.4,0.7-2-1.5C270.6,55.6,270.6,55,272.5,57z"/>
								<path class="st54" d="M256,43.5c-1.2,0.2-1.4-0.9-2-1.5C255.2,41.8,255.4,42.9,256,43.5z"/>
								<path class="st41" d="M259,46c-0.1-0.1-0.3-0.1-2-1.5C258.2,44.3,258.4,45.3,259,46z"/>
								<path class="st41" d="M264,50c-1.2,0.2-1.4-0.9-2-1.5C263.3,48.3,263.8,49.8,264,50z"/>
								<path class="st41" d="M250,38.5c-1.2,0.2-1.4-0.9-2-1.5C249.2,36.8,249.4,37.9,250,38.5z"/>
								<path class="st54" d="M252.5,40.5c-1,0.3-1-0.5-1.5-1C252.2,39.3,252.4,40.4,252.5,40.5z"/>
								<path class="st66" d="M274,58c-1.2,0.2-1.4-0.9-1.5-1C272.6,57.1,273.5,57.7,274,58z"/>
								<path class="st66" d="M276.5,60c-1,0.3-1-0.5-1.5-1C276.2,58.8,276.4,59.9,276.5,60z"/>
								<path class="st66" d="M279,62c-1,0.3-1-0.5-1.5-1C278.7,60.8,278.9,61.9,279,62z"/>
								<path class="st66" d="M281.5,64c-1,0.3-1-0.5-1.5-1C281.2,62.8,281.4,63.9,281.5,64z"/>
								<path class="st40" d="M274,219.5c-0.5-0.9-0.5-0.9-1-1.8c0.1,9.5-0.5-1.7-1.5,0c0,6,0,6,0,12c-0.3-4.6,0.4-17-2-18.2
									c1-1.8,1.3,0,1.8-0.5c1.1-1.1-2.6-18.7-1.8-21.8c0.5,0,0.5,0,1,0c-2,5.4,2.2,7.6,1,14c0.5-4.2,0.5-4.2,1-8.5
									c-0.7,21.2,1.6,22.1,0.5,0.5c0.5,0,0.5,0,1,0C274,203.3,273.5,211.4,274,219.5z"/>
								<path class="st40" d="M262.5,154.5c-2-6.1-0.4,7-1.2,7c-0.1-3.6-0.1-3.6-0.2-7.2c-0.5,0-0.5,0-1,0
									c1.7,21.8-0.6,15.6-0.5-2.5c0.8,0.5,0.8,0.5,1.5,1c-0.2-6.8-0.2-6.8-0.5-13.5c-0.5,0-0.5,0-1,0c-0.2,2.2-0.2,2.2-0.5,4.5
									c0.1-14.6,0.1-14.6,0.2-29.2c0.1,11.9,0.1,11.9,0.2,23.8c0.5,0,0.5,0,1,0c0.2-8.5,0.2-8.5,0.5-17c0.3,7.8-0.4,15.7,0,23.5
									C261,145.3,262.1,142.2,262.5,154.5z"/>
								<path class="st56" d="M271,276c-1.6,0.3,2.6-8.1,3-9.8c2.1-10.1,2.4-33.8,0-22.8c0-0.7,0-1.3,0-2c0.1-1.6,0-6.5,1.5-3.2
									c0-5.8,0-5.8,0-11.5c-0.5,0-0.5,0-1,0c0.3,13.8-1.5,3.8,0-4.2c0.1,1.1-0.1,2.2,0,3.2c0.8-0.8,0.8-0.8,1.5-1.5
									C275.1,241.6,279,259.9,271,276z"/>
								<path class="st40" d="M263.8,113.5c0.9,8.1,0.9,8.1,1.8,16.2c0.8-0.8,0.8-0.8,1.5-1.5c-0.1,6.4-0.1,6.4-0.2,12.8
									c-0.3-13.1-2.3-14.3-1.2-0.8c-1.8-6.5-1-13.4-1.5-20c0-0.4-1.8-1.6,0-2C263.9,115.9,263.9,115.9,263.8,113.5z"/>
								<path class="st37" d="M248.5,209c0-4.3,0.4-8.8-0.5-13c0.1-3.3-0.2-12.5,1.5-9.2c0.7,1.4-1,27.6-0.5,31.5
									C248.1,215.3,248.5,212,248.5,209z"/>
								<path class="st37" d="M277,103.5c0.2,4.5,0.2,4.5,0.5,9c-0.5,15.4-2.6-4-2-9.8C277.3,101.9,276.8,103.2,277,103.5z"/>
								<path class="st34" d="M271.5,145.5c0.6,3.4-0.5,7.1-0.5,10.5c0,3,2.6,7.3-0.5,9c0-0.2,0-0.3,0-0.5c0-0.7,0-1.3,0-2
									c0.2-5.7-0.1-11.3,0-17C271,145.5,271,145.5,271.5,145.5z"/>
								<path class="st56" d="M278.5,244c0-1.2,0.1-14-0.8-14c0.8,30.4-2.4,2.6-0.8-2.2c0.1-0.4,0.9,0.1,1.2-1.2
									C279,232.4,279.4,238.1,278.5,244z"/>
								<path class="st48" d="M263.8,151.5c0.5,3.9,1.4,31.2,0.8,32.8C263.8,185.8,263.7,154,263.8,151.5z"/>
								<path class="st57" d="M263.5,95.5c0,0.8,0,1.7,0,2.5c-2.4-1.1,0.1-10.7-1.5-15.8C264.2,78.8,263.4,88.3,263.5,95.5z"/>
								<path class="st67" d="M283.8,217.5c2.7,4.3,3.3,9,2.5,14C284.1,229.5,285.9,223.1,283.8,217.5z"/>
								<path class="st40" d="M259.2,167.5c0.6,1.1,0.6,1.1,1.2,2.2C259.7,187.7,258.3,186.4,259.2,167.5z"/>
								<path class="st56" d="M268.2,125.5c-0.3,4.3,1.3,27.9,0.8,29.2C268.4,156.1,267.4,127.8,268.2,125.5z"/>
								<path class="st40" d="M265.8,86c1,5-0.9,12.2,1.2,13.2c-2,1.2-0.7,9.3-0.8,14.2C266,99.8,266,99.8,265.8,86z"/>
								<path class="st40" d="M274.8,145.5c0.7,9.6,0.6,24.6-0.8,15.8C273.4,157.5,274.9,150.1,274.8,145.5z"/>
								<path class="st56" d="M270.5,145.5c-0.1,5.7,0.2,11.3,0,17c-3.1-8-1.1-2.9-0.5-4.8C271.1,154.4,267.9,125.7,270.5,145.5z"/>
								<path class="st38" d="M251.8,155c1.4,1,0.2,8.2-0.5,10C250.6,164.2,249.5,153.4,251.8,155z"/>
								<path class="st56" d="M265.2,155.5c0.8,9.5,0.8,9.5,1.5,19C265,173.7,264.3,155.5,265.2,155.5z"/>
								<path class="st56" d="M280,191.5c-0.1,1.5-0.8,2.7-0.5,4.2c-2.7-4.7-0.9,1.1-1,1.5c-2.3,14.6-2.1,1.9-1-3.5
									c0.1-0.5,1.4,0,1.5-0.5c0.2-0.7-0.2-2.1,0-2.8C279.5,191,279.5,191,280,191.5z"/>
								<path class="st56" d="M265.5,197c-0.4,8.5-0.1-7.7-1.5-1.5c-0.3-1.8-0.4-3.6-0.5-5.5c0,0.1,0.8-0.3,0.5,2.8c0.5,0,0.5,0,1,0
									C265.1,180.9,265.7,191.6,265.5,197z"/>
								<path class="st40" d="M263.5,98c0-0.8,0-1.7,0-2.5c0.3,0,0.9-0.1,1,0.2C264.9,96.8,263.7,118.9,263.5,98z"/>
								<path class="st56" d="M271,276c0.9-1.6,3.2-4.6,4-6.5C275.1,273.1,265.3,286.7,271,276z"/>
								<path class="st48" d="M265.2,176c0.6,2.1,0.6,2.1,1.2,4.2C266.3,192.2,265.2,182.1,265.2,176z"/>
								<path class="st40" d="M270.8,100.5c0.4,0,0.2,6.3,0.2,7.2C271.2,124.6,269.9,116.7,270.8,100.5z"/>
								<path class="st40" d="M272.8,140c0.7,0,1,12.7,0.8,14.2C272.7,158.7,273,145.4,272.8,140z"/>
								<path class="st57" d="M251.2,57c-0.1,2.5,1.3,8.6,0.8,10.2C250.9,70.5,250.6,63.2,251.2,57z"/>
								<path class="st56" d="M277.2,253.5c0.8,4.5-0.5,9.2-1.5,13.5C276.5,260.2,276.5,260.2,277.2,253.5z"/>
								<path class="st40" d="M262.5,154.5c1.5,4.6,0.1,10.7,0.2,15.5C262.2,164.9,262.7,159.7,262.5,154.5z"/>
								<path class="st37" d="M263.2,64c0.4,0,1-0.2,1.2,0.2C265.6,66.2,263.4,78.2,263.2,64z"/>
								<path class="st40" d="M282.8,228.5c1-0.3,1,13.1,0.8,13.8c-0.7,1.5-0.2-12.4-1-13.5C282.6,228.6,282.6,228.6,282.8,228.5z"
									/>
								<path class="st56" d="M267.8,111c-0.1,2.7,1.4,12.3,0.8,13.8C268,125.8,267,111,267.8,111z"/>
								<path class="st40" d="M272.8,111.5c0.5,0,0.3,8.1,0.2,9.2C272.8,132.1,272.1,124.2,272.8,111.5z"/>
								<path class="st56" d="M266.2,114.5c-0.1,2.6,1.3,11.5,0.8,12.8C266.5,128.3,265.4,114.5,266.2,114.5z"/>
								<path class="st40" d="M258.2,154.5c1.9,12-0.4,13.9-0.2,0.2C258.1,154.6,258.1,154.6,258.2,154.5z"/>
								<path class="st40" d="M271,156c0-3.4,1.1-7.1,0.5-10.5c0.2,5.1,0.2,5.1,0.5,10.2C271.5,155.9,271.5,155.9,271,156z"/>
								<path class="st40" d="M276.8,209.5c0.5,0,0.3,9.6,0.2,10.8C276.6,226.1,276.1,217.7,276.8,209.5z"/>
								<path class="st56" d="M255.2,123c0,8.7,1.2,7.3,1.2,7.8C256.8,135.5,253.9,133,255.2,123z"/>
								<path class="st40" d="M248.5,209c-0.8-4.2-0.6-8.7-0.5-13C248.9,200.2,248.5,204.7,248.5,209z"/>
								<path class="st40" d="M248.8,222c1.2,14-0.7,15.5-0.2,3.2C248.5,224.1,248.3,222,248.8,222z"/>
								<path class="st56" d="M250.2,208c0.4,0,0.2,4.9,0.2,5.8C250.6,224.6,249.4,219.6,250.2,208z"/>
								<path class="st56" d="M255,257c-0.4,0-0.8,1.9-1,2.5C254.9,252.1,255.6,242.3,255,257z"/>
								<path class="st37" d="M259.2,53c1.6-1.1,1.6,3.1,1,3.5C258.7,57.6,258.7,53.4,259.2,53z"/>
								<path class="st40" d="M277.5,112.5c-0.2-4.5-0.2-4.5-0.5-9C277.9,105,277.6,110.4,277.5,112.5z"/>
								<path class="st40" d="M282.8,180.5c0,2.4,0.8,6.4,0.8,6.8C283.2,189.6,281.8,186.1,282.8,180.5z"/>
								<path class="st68" d="M270.5,165c-0.6,9.3-2.3,5.9,0-0.5C270.5,164.7,270.5,164.8,270.5,165z"/>
								<path class="st40" d="M257.5,197.5c0,1.5,0,1.5,0,3C256,200.7,255.8,193.8,257.5,197.5z"/>
								<path class="st40" d="M254.2,244c2.2,0.3,0.8,2.2,0.5,4C254.5,246,254.5,246,254.2,244z"/>
								<path class="st40" d="M281.2,213.5c1.3-0.1,0.8,10.3-0.2,0.2C281.1,213.6,281.1,213.6,281.2,213.5z"/>
								<path class="st48" d="M268.2,187c0.3,0,0.5,4.8,0.2,5.2C267.9,193.6,267.7,187,268.2,187z"/>
								<path class="st56" d="M275.2,192c0.8,4.6-0.3,7.3-0.2,1.8C275,193.6,274.1,193.6,275.2,192z"/>
								<path class="st68" d="M280,191.5c-0.5-0.5-0.5-0.5-1-1C280.3,186.2,280.4,185.2,280,191.5z"/>
								<path class="st56" d="M266.8,158.5c0.2,0,0.5,4.3,0.2,4.8C266.4,164.5,266.2,158.5,266.8,158.5z"/>
								<path class="st56" d="M266.8,187.5c0.3,0,0.4,3.3,0.2,3.8C266.5,192.5,266.2,187.5,266.8,187.5z"/>
								<path class="st56" d="M266.8,142c0.3,0,0.4,2.8,0.2,3.2C266.5,146.4,266.2,142,266.8,142z"/>
								<path class="st56" d="M263.5,190c0-0.2-1.1-0.3-0.2-3.5C263.8,187.5,263.4,188.9,263.5,190z"/>
								<path class="st56" d="M278.5,244c0,1,0.2,2.2-0.2,3C277.4,244.2,278.5,244.1,278.5,244z"/>
								<path class="st68" d="M265.2,172.5c0.4,0,0.4,3,0,3S264.9,172.5,265.2,172.5z"/>
								<path class="st48" d="M271.8,190c0.4,0,0.4,3,0,3S271.4,190,271.8,190z"/>
								<path class="st56" d="M274,259.5c0.1-0.8-0.3-1.9,0.2-2.5C275.1,259.2,274.1,259.4,274,259.5z"/>
								<path class="st56" d="M281.8,193c0.4,0,0.4,2,0,2S281.4,193,281.8,193z"/>
								<path class="st56" d="M275,269.5c0.1-1,0.1-1,0.2-2C276.1,269.4,275,269.4,275,269.5z"/>
								<path class="st56" d="M277.8,262c0.4,0,0.4,2,0,2S277.4,262,277.8,262z"/>
								<path class="st48" d="M276.8,193c0.4,0,0.4,1.5,0,1.5S276.4,193,276.8,193z"/>
							</g>
							<path class="st57" d="M288.2,204c0.2,0,0.2,0,0.5,0c0.1,0.1,0.1,0.1,0.2,0.2c0,0.2,0,0.2,0,0.5c-0.1,0.1-0.1,0.1-0.2,0.2
								c-0.1-0.1-0.1-0.1-0.2-0.2s-0.1-0.1-0.2-0.2s-0.1-0.1-0.2-0.2C288.1,204.1,288.1,204.1,288.2,204z"/>
						</g>
					</g>
					<g>
						<path class="st34" d="M264,195.5c1.4-6.2,1.1,10,1.5,1.5c0.2,0,0.2,0,0.5,0c-0.7,4.5,4.5,3.5,2.5,7.8c-0.2,0.4-0.7,0.2-1,0.2
							c-1-6.6-3-3.8-2-1.2c0,0.1,1.9,1.3,2,1.2c0.2,1.5-0.7,2.5,1,3.5c-0.1,2.5-0.2,4,0,6.5c0.1,1.9-0.3,5.5,0.2,5.5
							c0.6-1.8,0.1-3.7,0.2-5.5c0.1-1.4-0.3-2.1,0.5-3.5c2.4,1.2,1.7,13.7,2,18.2c0-6,0-6,0-12c1-1.7,1.6,9.5,1.5,0
							c0.5,0.9,0.5,0.9,1,1.8c0.2,2.4,0.5,2.8,0.5,3c-1.5,8,0.3,18.1,0,4.2c0.5,0,0.5,0,1,0c0,5.8,0,5.8,0,11.5
							c-1.5-3.3-1.4,1.7-1.5,3.2c-0.2,0-0.2,0-0.5,0c0.9-4.4-2.7-6.6-1-1c-1.6-1-0.8,0.3-1,1.5c-0.4,1.9-0.3,3.4-0.5,5.2
							c0,0.4-1,0.1-1,0.5c-0.6,5.8,0.2,12.6-1,18.5c-0.2,0.8-1.7,6.5-2.5,4.8c3.1-8.9,2.8-18.4,2.2-27.5c-0.7,4.6,0.3,15.7-1.2,3.8
							c0.9,8.6,0.7,15.2-1,23.8c-2.4,1.2,3.2-15.3-0.5-14.2c0.8,1.6,0.3,7.8,0,9.5c-1.5,7.5-0.6,0.4-0.5-2.5
							c0.4-7.6-0.5-23.8-0.5-6.5c-2,2.5-2.3,11.5-4,18c-0.1,0.4-1.8,3.3-2.5,5.2c-2.5,2.7,1.1-3.4,1.5-4.8c1.5-4.8,1.9-10.1,3-15
							c-0.1-15.4-0.6,9.2-4,13c1.7-7,4.2-22,1-17.8c0.5-16.4-1.5-33.3-0.5-49.8c-0.6,8.6-1.9-2.2-2-4.8c0-0.3,0-0.7,0-1
							c0-1.5,0-1.5,0-3c0.1,0.3,2.6,5.1,3.5,3.2c0.9-5.6-3.9-4.8,0.2-9.8C263,190.6,262.6,199.1,264,195.5z"/>
						<g>
							<path class="st56" d="M268.5,208.5c-1.7-1-0.8-2-1-3.5c0.3-0.1,0.8,0.2,1-0.2c2-4.3-3.2-3.2-2.5-7.8c0.8-5.5-0.1,3.1,4,3.8
								c-0.5,0.2-0.5,0.2-1,0.5C269.5,203.7,268.6,206.2,268.5,208.5z"/>
							<path class="st56" d="M268.5,215c0.2,0,0.2,0,0.5,0c-0.2,1.8,0.3,3.7-0.2,5.5C268.2,220.5,268.6,216.9,268.5,215z"/>
							<path class="st56" d="M266.5,271c1.7-8.6,1.9-15.1,1-23.8c1.6,11.9,0.6,0.9,1.2-3.8C269.3,252.6,269.6,262.1,266.5,271z"/>
							<path class="st40" d="M266.8,212.5c0.1,1.3,1.2,18.3-0.5,17C267,223,265.2,218.6,266.8,212.5z"/>
							<path class="st40" d="M260.8,239c2.9,3.6-0.1,6.1,0.5,11C261,244.5,261,244.5,260.8,239z"/>
							<path class="st56" d="M273.5,241.5c-0.1,3-0.5,0.5-1-1C270.8,234.9,274.4,237.1,273.5,241.5z"/>
							<path class="st56" d="M267.5,205c-0.1,0-2-1.1-2-1.2C264.5,201.2,266.5,198.4,267.5,205z"/>
							<path class="st48" d="M261.8,236c0.4,0,0.4,2.5,0,2.5S261.4,236,261.8,236z"/>
							<path class="st65" d="M269.8,220.5c0.7-0.3,1.1,0.8,0.5,1C269.5,221.8,269.2,220.7,269.8,220.5z"/>
						</g>
					</g>
					<g>
						<path class="st56" d="M272,249.5c-0.1-1-0.1-1-0.2-2C270.9,249.5,272,249.4,272,249.5c0.3,5.1-0.5,10.2-0.5,15.2
							c-1.3,4.1-2.5,8.1-3.5,12.2c-0.7,2.1-2.4,4.7-1.2,6.5c0.4-0.2,1-5.7,1.2-6.5c1.7-5,4.3-9.9,5-15.2c0.1-0.9-0.6-11.1,1-18.2
							c-0.3,5.8,0,11.5-1,17.2c0.3,0.4,0.9-1.1,1-1.2c-1.2,8.5-5.3,15.8-6.5,24.2c-6.3,8.4-13.7,16.1-21,23.8
							c-0.2,0.1-1.4-0.1-3,2.5c-2.5-0.6-0.9-1.6,0-3c0.6,0,0.7-0.6,1-1c0.4-0.7,0.4-0.9,0.5-1c1.5-0.9,2.4-2.3,3.5-3.5
							c0.1-0.2,0.3-0.4,0.5-0.5c0.1-0.1,1.2-0.3,1-1.5c0.4-0.3,0.5-0.5,0.5-0.5c0.6-0.5,1.5-1,2-1.5c-0.3,0.5-0.9,1.9-1,2.5
							c-0.6,0.6-2.8,1.9-2.8,3c1.4-1.5,1.4-1.5,2.8-3c4.4-4.9,12.5-19.3,15-25.5c0,1.3-2.8,13.2-1,8.8c0.4-0.9,5.3-18.5,5.5-19.5
							c2.2-13.9-1-22-1,0.5c-0.7,3.7-2.1,6.8-3.5,10.2c0-0.5,0.2-1.8-0.2-2c-0.6,1.2-1.2,2.3-1.8,3.5c-3.6,1.7-4.2,4.6-6.5,7.5
							c1.4-3.5,0.5-2.9,0.5-3c0.7-1.9,2.4-4.9,2.5-5.2c1.7-6.5,2-15.5,4-18c0-17.3,0.9-1.1,0.5,6.5c-0.1,2.9-1,10,0.5,2.5
							c0.3-1.7,0.8-7.9,0-9.5c3.7-1.1-1.9,15.4,0.5,14.2c0.8,1.7,2.3-3.9,2.5-4.8c1.2-5.9,0.4-12.7,1-18.5c0-0.4,1-0.1,1-0.5
							c0.2-1.8,0.1-3.3,0.5-5.2c0.1,0.6-0.2,3.5,0.2,3.5C272.2,245.5,273.1,237.4,272,249.5z"/>
						<g>
							<path class="st37" d="M266.5,274.5c-2.5,6.2-10.6,20.6-15,25.5c0.1-0.6,0.7-2,1-2.5c1.9-1.9,2.5-2.5,0-1
								c0.5-1.1,0.5-1.1,1-2.2c4.1-2.5,8.3-12.8,11-18.2c0.6-1.2,1.2-2.3,1.8-3.5C266.7,272.7,266.5,274,266.5,274.5z"/>
							<path class="st51" d="M248.5,301.5c-1.1,1.2-2,2.6-3.5,3.5C245.7,303.7,247.2,300.5,248.5,301.5z"/>
							<path class="st37" d="M246.5,307.5c-0.7,0.7-1.7,2.8-3,2.5C245.1,307.4,246.3,307.6,246.5,307.5z"/>
							<path class="st67" d="M249,301c-0.3-1,0.5-1,1-1.5C250.2,300.7,249.1,300.9,249,301z"/>
							<path class="st51" d="M244.5,306c-0.3,0.4-0.4,1-1,1C243.6,306.8,243.1,305.8,244.5,306z"/>
							<path class="st34" d="M272.5,240.5c0.5,1.5,0.9,4,1,1c0.2,0,0.2,0,0.5,0c0,0.7,0,1.3,0,2c-1.6,7.2-0.9,17.3-1,18.2
								c-0.7,5.3-3.3,10.3-5,15.2c1-4.2,2.2-8.2,3.5-12.2c0-5.1,0.8-10.1,0.5-15.2c1.1-12.1,0.2-4-0.2-4c-0.5,0-0.2-2.9-0.2-3.5
								C271.7,240.8,270.9,239.5,272.5,240.5z"/>
							<path class="st34" d="M266.5,274.5c1.4-3.4,2.8-6.6,3.5-10.2c0-22.5,3.2-14.4,1-0.5c-0.2,1-5.1,18.6-5.5,19.5
								C263.7,287.7,266.5,275.8,266.5,274.5z"/>
							<path class="st34" d="M264.2,259.5c0.4,1.6,0.4,1.6,0.8,3.2C262.8,273.6,262.9,268.8,264.2,259.5z"/>
							<path class="st34" d="M268,277c-0.2,0.8-0.9,6.3-1.2,6.5C265.6,281.7,267.3,279.1,268,277z"/>
							<path class="st37" d="M263.2,270c-0.2,5.4-3.5,7-0.2,0.2C263.1,270.1,263.1,270.1,263.2,270z"/>
							<path class="st34" d="M264.8,270c-0.3,2.3,0.3,3.1,0.2,3.2C263.1,278,262.8,271.9,264.8,270z"/>
							<path class="st37" d="M251.5,300c-1.4,1.5-1.4,1.5-2.8,3C248.7,301.9,250.9,300.6,251.5,300z"/>
							<path class="st34" d="M272,249.5c0-0.1-1.1,0-0.2-2C271.9,248.5,271.9,248.5,272,249.5z"/>
							<path class="st37" d="M264.8,285.5c0.8,0.1-0.5,2-0.8,1.2C263.8,286.2,264.7,285.5,264.8,285.5z"/>
						</g>
					</g>
					<g>
						<path class="st56" d="M260,256c-0.1,3.3-1.1,15.4-2.5,17.5c-0.2-0.6,0.3-1.9-0.2-2c-1.4,3.1-1.3,4.3,0.2,2
							c0.1,0.5-0.2,1.4,0.2,1.5C259.3,270,262.5,255.1,260,256c3.2-4.3,0.7,10.8-1,17.8c3.4-3.8,3.9-28.4,4-13
							c-1.1,4.9-1.5,10.2-3,15c-0.4,1.4-4,7.5-1.5,4.8c0,0.1,0.9-0.5-0.5,3c-0.4,0.8-0.4,0.8-0.8,1.5c1-0.7,0.7-1.4,0.8-1.5
							c2.3-2.9,2.9-5.8,6.5-7.5c-2.7,5.4-6.9,15.8-11,18.2c-0.5,1.1-0.5,1.1-1,2.2c-0.9,0.5-2.1,1.3-2,2.5c0,0-0.1,0.2-0.5,0.5
							c-0.5,0.5-1.3,0.5-1,1.5c-0.2,0.1-0.4,0.3-0.5,0.5c-1.3-1-2.8,2.2-3.5,3.5c-0.1,0.1-0.1,0.3-0.5,1c-1.4-0.2-0.9,0.8-1,1
							c-0.9,1.4-2.5,2.4,0,3c1.3,0.3,2.3-1.8,3-2.5c4-3.1,7.2-7.2,11-10.5c-1.4,3.5-16.3,17.7-17.8,18.5c-0.1,0.1-1-0.2-2.8,0.5
							c0,0,0.1-0.7-0.8-0.5c-2.2,2.1-2.5,2.6,0.2,1c-0.2,2.4-3.2,3.3-5,4.5c0.4-0.8,0.4-0.8,0.8-1.5c-0.9-0.2-1.7,1.4-1.8,1.5
							c-0.9-0.2-1.2,0.3-1.5,1c-10.5,6.3-8.9,3.2-9.8,3.5c-9.3,3-18.7,6.9-28.8,5.2c6.6,0.2,13.5-1.8,10.8-2.2c-1.2-0.2-5.7,2.2-3-1
							c-3.5,0.2-3.5,0.2-7,0.5c10.6,1.4,3.7,2.7-9.2-0.5c0.4-0.2,0.4-0.2,0.8-0.5c-1.1,0.1-1.9-0.6-2.8-1c-4.6-2.1-12.7-3.4-6-1.5
							c-0.5,0.9,3,1.7,5.5,2.5c-1.4,6.1-4.5-1.7-12.8-0.5c-0.1-2.8-4-0.8-2.8-3.5c0.4,0.1,2.7,1.9,7,1.8c-3.7-3.4-8.4-1.5-8.5-3.8
							c32.5,6.8,50.2-5.5,69.5-29.5c0.4,1.3,1.2-0.2,2-0.5c0.1,0.5,0.1,0.5,0.2,1c2.5-3,0.9-1.4-0.2-1c5.8-9.6,3-5.8-2,0.5
							c-0.5-1.8,9-10.7,12.5-35c1.9,2.8-2.7,10.4,0,9.8c0.3-4.9,3-15.8,1.5-4c0.5,0,0.5,0,1,0c0.6-7.8,2.7-14.3,2-22.5
							c-1.5,1,0.6-7.4,0.8-3.2c3.3-0.7,1-4.5,2-8c0,10.3,1,24.1-0.2,34c-1.7-4.9,1.6-13-1-16.8c1.5,0.1,1.2-9.2,0.8-9.2
							c-0.4-0.1,0.2,2.7-1.8,0.8c0.2,9.7,1.7,18.4,0.5,28.5c-9,29.1-0.4,11.2,1.5-3.2c1.4,0,2.5-26.4,2-5.2c-1.5,7.9-1.5,7.9-3,15.8
							c-1.4,3.5-1.4,3.5-2.8,7c1.4-3.5,1.4-3.5,2.8-7c1.6-4.4,1.9-9.1,3.5-13.5c-0.6,5.2-2.5,11.6-2.5,12.2c0.1,4.3,3.2-7,3.5-14.8
							c0.5,1.6,0.5,1.6,1,3.2c0.1-9.2,1.3-9.9,1-1.5c-0.2,5.8-3,12.5-0.5,10c1.9-19.6,3-15.1,0.5,1c3.9-12.3,1.9-38.1,1-52.5
							c3,3.3-1-8.7,0-11c-0.5,1.2-0.5,1.2-1,2.5c0.2-3.6,0.2-3.6,0.5-7.2c0.1,2.6,1.4,13.4,2,4.8C258.5,222.7,260.5,239.6,260,256z"
							/>
						<g>
							<path class="st44" d="M231.5,321c-0.2,0.1-3.9,3.9-2.5,1c0.7-0.4,1.1-0.8,1.5-1c0.1-0.1,0.8-1.7,1.8-1.5
								C231.9,320.2,231.9,320.2,231.5,321z"/>
							<g>
								<path class="st69" d="M180,326c0.9,0.4,1.7,1.1,2.8,1c-0.4,0.2-0.4,0.2-0.8,0.5c-0.6-0.1-1.2-0.1-2.5-0.5
									c-2.5-0.8-6-1.6-5.5-2.5C176,325.1,177.9,326,180,326z"/>
								<path class="st46" d="M237,316c0.1,0.6-0.4,0.4-0.5,0.5c-2.7,1.6-2.4,1.1-0.2-1C237.1,315.3,237,316,237,316z"/>
								<path class="st69" d="M247.5,294c-0.8,1.2-0.9,2.3-1,2.5c-0.1,0.1-1.2,0.3-1,1.5c-0.4,0.7-1.1,0.6-1.5,1.2
									c-0.3,0.5,0.7,1,0.5,1.2c-3.1,4.7-7.8,8-12,11.5c-0.1-2.3-0.7,0.5-1.2,0.5c-0.4,0-0.7-1-0.8-1c2.5-2.1,4-5,6-7.5
									c1.9-1.6,2.5-3.3,4-5c1.3-1.6,3.9-3.9,5.5-6C246.9,294.4,247.5,293.9,247.5,294z"/>
								<path class="st34" d="M251.5,262.5c-1.9,14.5-10.5,32.4-1.5,3.2c1.2-10.1-0.3-18.8-0.5-28.5c1.9,2,1.4-0.8,1.8-0.8
									c0.5,0.1,0.8,9.3-0.8,9.2C253.1,249.5,249.8,257.6,251.5,262.5z"/>
								<path class="st34" d="M243.5,279.5c0.6-1.8,4.9-18.3,5-19.2c0.1-0.7-0.3-5.8,1.2-11.8C251.3,259.3,246.8,269.4,243.5,279.5z
									"/>
								<path class="st39" d="M223.5,310.5c-3.4,3-6.8,6.2-10.8,8.5c-25.6,5.7-27.2,4.6-0.5-0.5C216,315.8,219.7,313.2,223.5,310.5z
									"/>
								<path class="st46" d="M225.8,311c0.3,0,0.6-0.1,0.8,0.2c-7.3,6.8-16.1,11.1-26,11.5C217.9,320.2,224.3,311.2,225.8,311z"/>
								<path class="st51" d="M221,309.5c4.8-4.3,9.7-8.7,14-13.5C230.2,302.9,227.6,304.7,221,309.5z"/>
								<path class="st34" d="M257.5,273.5c1.4-2.1,2.4-14.2,2.5-17.5c2.5-0.9-0.7,14-2.2,19C257.3,274.9,257.6,274,257.5,273.5z"/>
								<path class="st51" d="M245,300.5c-1.6,2.8-3.4,4.8-5.8,7c-2.5,2.3-7.9,6.7-6.8,4.5c4.2-3.5,8.9-6.8,12-11.5
									C244.8,300.5,244.8,300.5,245,300.5z"/>
								<path class="st34" d="M254,259.5c0.2-0.6,0.6-2.5,1-2.5c-0.3,7.7-3.4,19.1-3.5,14.8C251.5,271.1,253.4,264.7,254,259.5z"/>
								<path class="st37" d="M251.8,277c2.7-1.3-5.4,11.9-7,12C248.2,283,248.2,283,251.8,277z"/>
								<path class="st34" d="M248.8,264.5c-0.4,3.6-0.4,3.6-0.8,7.2C242.9,287,246.8,271.1,248.8,264.5z"/>
								<path class="st37" d="M245.8,263c0.8-0.7-1.5,14.8-3.5,14.5C244,270.2,244,270.2,245.8,263z"/>
								<path class="st34" d="M254.5,270c0,0.1,0.9-0.7,1,1.2c0,0.8-1.9,7.9-2.2,3.8c-2.2,4.9-0.4-5.2,0.8-3.8
									C254.5,274.8,254.2,271.8,254.5,270z"/>
								<path class="st46" d="M228,317c-0.4-0.4-10,7.3-10.5,5.2C224.9,319.7,227.3,314,228,317z"/>
								<path class="st34" d="M254.5,270c0-0.1-0.9,0.2-1-0.2C253.2,268.9,257.3,251.1,254.5,270z"/>
								<path class="st70" d="M230.5,311.5c-0.3,0.1-0.7-0.1-1,0c0.9-0.9,5-5.1,5-6c0.7-0.4,1.4-1,2-1.5
									C234.5,306.5,233,309.4,230.5,311.5z"/>
								<path class="st34" d="M213.8,324c5.2-0.8-1.4,2.5-5.2,2.2C209.8,325.7,212.9,324.1,213.8,324z"/>
								<path class="st38" d="M180,326c-2.1,0-4-0.9-6-1.5C167.3,322.6,175.4,323.9,180,326z"/>
								<path class="st57" d="M239.5,287.5c2-4,2-4,4-8c-0.8,2.3-1.3,4.6-2.5,6.8C240.6,287,239.6,287.4,239.5,287.5z"/>
								<path class="st51" d="M234,291c-0.8,0.3-1.6,1.8-2,0.5C237,285.2,239.8,281.4,234,291z"/>
								<path class="st70" d="M246,292.5c-0.1,0.1,0.1,0.4,0,0.5c-1.6,2.1-4.2,4.4-5.5,6C242.2,297,244.4,294.6,246,292.5z"/>
								<path class="st37" d="M258.8,274.5c0.4,0.1,0.3,1.4,0.2,1.8C258.2,280.5,252.6,287.9,258.8,274.5z"/>
								<path class="st37" d="M250.5,273c-1.4,3.5-1.4,3.5-2.8,7C249.1,276.5,249.1,276.5,250.5,273z"/>
								<path class="st46" d="M221,309.5c-4.1,3.6-5.2,4-6.5,5C216.6,312.5,218.7,311.2,221,309.5z"/>
								<path class="st46" d="M233,303c1.5-1.9,2.7-4,4.8-5.5C238.4,298.7,234.9,301.1,233,303z"/>
								<path class="st70" d="M236.5,304c1.4-1.7,2.6-3.3,4-5C239,300.7,238.4,302.4,236.5,304z"/>
								<path class="st39" d="M223.5,310.5c1.4-1.2,2.3-3.4,4.5-3.8C227.1,308.6,225,309.4,223.5,310.5z"/>
								<path class="st51" d="M252.5,287.5c-1,1.7-1.6,3.7-3.2,5C248.8,291,251.6,288.7,252.5,287.5z"/>
								<path class="st34" d="M176.8,323.5c1.6,0.2,4-0.7,4.2,1.2C178.9,324.1,178.9,324.1,176.8,323.5z"/>
								<path class="st51" d="M255,280c0.6-1.2,1-3.4,2.2-4.5C257.6,277.6,255.1,279.8,255,280z"/>
								<path class="st51" d="M248,290c1-1.3,2-2.7,3-4C249.9,287.6,249.1,288.5,248,290z"/>
								<path class="st46" d="M233,303c-0.2,0.2-1.7,3.9-3.5,3.2C230.5,305,231.9,304.1,233,303z"/>
								<path class="st51" d="M252.5,284c0.6-0.9,1.9-2.9,2.5-4C253.9,282,253.6,282.3,252.5,284z"/>
								<path class="st51" d="M239,286c0.5-0.9,0.8-3.2,1.8-4C239.9,284,239.9,284,239,286z"/>
								<path class="st34" d="M212.8,322.5c3.4-0.6-2.5,2.6-2.8,1.2C211.5,323.5,212.6,322.5,212.8,322.5z"/>
								<path class="st70" d="M248,290c-0.7,0.9-1.3,1.6-2,2.5C246.7,291.6,247.5,290.7,248,290z"/>
								<path class="st37" d="M242.5,292c-0.9,1.7-0.9,1.3-2,2.5C241.5,293.1,241.1,293.3,242.5,292z"/>
								<path class="st38" d="M188.8,324c0.2-0.1,3.8-0.1,4,0C194.2,324.7,187.3,324.7,188.8,324z"/>
								<path class="st53" d="M240.5,294.5c-0.1,0.1,0.3,0.9-1.8,2.5C238,295.8,240,295,240.5,294.5z"/>
								<path class="st37" d="M252.5,297.5c-0.5,0.5-1.4,1-2,1.5c-0.1-1.2,1.1-2,2-2.5C252.5,296.9,252.6,297.4,252.5,297.5z"/>
								<path class="st70" d="M229.5,311.5c-0.7,0.7-1.1,2.1-2.5,2C228,312.5,227.7,312,229.5,311.5z"/>
								<path class="st70" d="M234.5,305.5c-4.4,2.7-0.5-1-0.2-1C234.6,304.5,234.5,305.2,234.5,305.5z"/>
								<path class="st37" d="M203.5,325.5c0.9-0.4,1.9-1.4,3-0.8C205.7,325.9,204.6,325.4,203.5,325.5z"/>
								<path class="st34" d="M257.5,273.5c-1.6,2.3-1.7,1.1-0.2-2C257.8,271.6,257.3,272.9,257.5,273.5z"/>
								<path class="st46" d="M236.8,313c1.8-0.4-1.4,2.8-1.8,1.8C235,314.6,236.6,313,236.8,313z"/>
								<path class="st51" d="M237,288c0.6-0.8,1.1-1.6,2-2C237.7,288.3,237.8,287.3,237,288z"/>
								<path class="st46" d="M214.5,314.5c-0.4,0.3,0.7,1.3,0.2,1.5C210.7,317.5,214.3,314.7,214.5,314.5z"/>
								<path class="st51" d="M246.5,296.5c0.1-0.2,0.2-1.3,1-2.5C248.3,295.4,247.2,295.7,246.5,296.5z"/>
								<path class="st51" d="M254.8,288.5c0.7,0.1-0.7,2.6-1,2.5C253,290.9,254.5,288.4,254.8,288.5z"/>
								<path class="st51" d="M251,286c0.5-0.7,1.1-1.4,1.5-2C251.9,284.9,251.5,285.3,251,286z"/>
								<path class="st51" d="M238,289.5c0.3-0.5,1.4-1.9,1.5-2C238.8,288.5,238.8,288.5,238,289.5z"/>
								<path class="st46" d="M228,317c0,0.1,0.8-0.2,1,0.2C227.4,319.1,226.3,319,228,317z"/>
								<path class="st71" d="M235,296c0.1-0.1-0.3-0.1,1.5-2C235.8,295.3,235.9,295,235,296z"/>
								<path class="st51" d="M251,294.5c0.4-0.7,0.5-1.5,1.2-2C252.8,294.4,251.1,294.4,251,294.5z"/>
								<path class="st51" d="M236,292.5c-0.1,0.1,0.3,0.9-1.2,2C233.9,293.5,235.7,292.8,236,292.5z"/>
								<path class="st51" d="M234,291c1.1-0.4,2.8-2,0.2,1C234.1,291.5,234.1,291.5,234,291z"/>
								<path class="st37" d="M251.2,273.5c1.3-0.7,0.2,2.1,0,2C250.9,275.3,250.8,273.7,251.2,273.5z"/>
								<path class="st37" d="M248,281.5c-0.1,0.1-0.1,1.2-0.8,2C246.3,282,247.9,281.6,248,281.5z"/>
								<path class="st39" d="M228.2,309c0.3-0.1,0.7,0,0.8,0.2C229.5,311,225.5,309.8,228.2,309z"/>
								<path class="st37" d="M248,281.5c0.1-0.1,0.1-1.2,0.8-2C249.7,281,248.1,281.4,248,281.5z"/>
								<path class="st39" d="M257.2,282c0.8,0.1-0.5,2-0.8,1.2C256.3,282.7,257.2,282,257.2,282z"/>
								<path class="st37" d="M253.5,286c0-0.1-0.3-0.8,0.8-1.5C255.1,285.4,253.5,285.9,253.5,286z"/>
								<path class="st37" d="M240.8,289.5c0.3,0,0.7-0.1,0.8,0.2C241.9,291.2,238.5,289.8,240.8,289.5z"/>
								<path class="st51" d="M237,291c0.4-0.6,0.6-0.9,1-1.5C238.2,290.7,237.1,290.9,237,291z"/>
								<path class="st37" d="M244.8,279.5c0.4,0.2,0.6,1.5-0.5,1.5C243.9,281,244.7,279.5,244.8,279.5z"/>
								<path class="st51" d="M251,294.5c-0.1,0.1,0.3,0.8-0.8,1.5C249.4,295.1,251,294.6,251,294.5z"/>
								<path class="st51" d="M245.5,298c-0.2-1.2,0.9-1.4,1-1.5C245.7,298.3,245.5,297.9,245.5,298z"/>
								<path class="st51" d="M237,288c-0.1,0.1,0.3,0.8-0.8,1.5C235.4,288.6,236.9,288.1,237,288z"/>
								<path class="st51" d="M247.8,296.5c0.8,0.1-0.5,2-0.8,1.2C246.8,297.2,247.7,296.5,247.8,296.5z"/>
								<path class="st46" d="M228.2,319c0.3,0,0.7-0.1,0.8,0.2C229.4,320.7,226,319.3,228.2,319z"/>
								<path class="st67" d="M232.8,314c0.3,0,0.7-0.1,0.8,0.2C233.9,315.7,230.5,314.3,232.8,314z"/>
								<path class="st51" d="M227,313.5c-0.8,0.4-0.8,0.4-1.5,0.8C226.2,313.2,226.9,313.6,227,313.5z"/>
								<path class="st39" d="M240.8,312.5c0.8,0.1-0.5,2-0.8,1.2C239.8,313.2,240.7,312.5,240.8,312.5z"/>
								<path class="st67" d="M236.5,294c0.1-0.1-0.3-0.8,0.8-1.5C238.1,293.4,236.5,293.9,236.5,294z"/>
								<path class="st51" d="M231.8,316.5c0.3,0,0.7-0.1,0.8,0.2C232.9,318.2,229.5,316.8,231.8,316.5z"/>
								<path class="st46" d="M240.8,310c0.3,0,0.7-0.1,0.8,0.2C241.9,311.7,238.5,310.3,240.8,310z"/>
								<path class="st51" d="M236,292.5c0.4-0.6,0.6-0.9,1-1.5C236.9,291.1,237,291.2,236,292.5z"/>
								<path class="st51" d="M245,300.5c0.4-0.8,0.4-0.8,0.8-1.5C246.6,299.9,245,300.4,245,300.5z"/>
								<path class="st67" d="M230.5,321c-0.4,0.2-0.8,0.6-1.5,1C229.3,321.3,229.6,320.8,230.5,321z"/>
								<path class="st37" d="M242.5,292c0.1-0.1-0.3-0.8,0.8-1.5C244.1,291.4,242.5,291.9,242.5,292z"/>
								<path class="st51" d="M252.5,287.5c0.5-0.8,0.5-0.9,1-1.5C253.1,286.7,253.1,286.8,252.5,287.5z"/>
								<path class="st37" d="M218.2,318.5c0.3,0,0.7-0.1,0.8,0.2C219.4,320.2,216,318.8,218.2,318.5z"/>
								<path class="st34" d="M256.2,270.5c0.4,0,0.4,2,0,2S255.9,270.5,256.2,270.5z"/>
								<path class="st53" d="M233.8,318c0.3,0,0.7-0.1,0.8,0.2C234.9,319.7,231.5,318.3,233.8,318z"/>
								<path class="st51" d="M258,283.5c-0.1,0.1,0.3,0.8-0.8,1.5C257.6,284.2,257.6,284.2,258,283.5z"/>
								<path class="st39" d="M199.8,327.5c0.3-0.1,1.2,0,1.2,0.2C201,328.3,198.9,327.9,199.8,327.5z"/>
								<path class="st37" d="M201.8,327c0.3-0.1,1.2,0,1.2,0.2C203,327.8,200.9,327.4,201.8,327z"/>
								<path class="st51" d="M232.8,293c0.1,0.1,0.1,0.1,0.2,0.2c0,0.2,0,0.2,0,0.5c-0.1,0.1-0.1,0.1-0.2,0.2c-0.2,0-0.2,0-0.5,0
									c-0.1-0.1-0.1-0.1-0.2-0.2c0.1-0.1,0.1-0.1,0.2-0.2s0.1-0.1,0.2-0.2S232.6,293.1,232.8,293z"/>
								<path class="st39" d="M205.8,326c0.3-0.1,1.2,0,1.2,0.2C207,326.8,204.9,326.4,205.8,326z"/>
								<path class="st37" d="M203.5,325.5c-0.1,0,0,1.1-1.5,0.2C202.3,325.2,203.2,325.7,203.5,325.5z"/>
								<path class="st69" d="M252.5,297.5c0.1-0.1,0-0.6,0-1C255,295,254.4,295.6,252.5,297.5z"/>
								<g>
									<path class="st39" d="M215.8,320c5.3-1-13.8,5.4-15,5.5c-1.6,0.2-3.2-0.6-4.8-0.8C202.7,324.7,211.7,320.7,215.8,320z"/>
									<path class="st72" d="M199.2,324.5c0.3-0.1,1.2,0,1.2,0.2C200.5,325.3,198.4,324.9,199.2,324.5z"/>
								</g>
							</g>
						</g>
					</g>
				</g>
			</g>
		</g>
	</g>
</g>
</svg>
